<mxfile host="app.diagrams.net" agent="Mozilla/5.0 (Windows NT 10.0; Win64; x64) AppleWebKit/537.36 (KHTML, like Gecko) Chrome/140.0.0.0 Safari/537.36" version="28.2.5">
  <diagram name="Page-1" id="822b0af5-4adb-64df-f703-e8dfc1f81529">
    <mxGraphModel dx="1426" dy="743" grid="1" gridSize="10" guides="1" tooltips="1" connect="1" arrows="1" fold="1" page="1" pageScale="1" pageWidth="1100" pageHeight="850" background="none" math="0" shadow="0">
      <root>
        <mxCell id="0" />
        <mxCell id="1" parent="0" />
        <mxCell id="5Ddv7FsW2zNBN4ctXqHw-1" value="Eero Mesh Network&lt;div&gt;192.168.4.0/22&lt;/div&gt;" style="image;html=1;image=img/lib/clip_art/networking/Wireless_Router_N_128x128.png" vertex="1" parent="1">
          <mxGeometry x="510" y="300" width="80" height="80" as="geometry" />
        </mxCell>
        <mxCell id="5Ddv7FsW2zNBN4ctXqHw-2" value="TP-Link C200" style="image;html=1;image=img/lib/clip_art/networking/Ip_Camera_128x128.png" vertex="1" parent="1">
          <mxGeometry x="280" y="120" width="50" height="60" as="geometry" />
        </mxCell>
        <mxCell id="5Ddv7FsW2zNBN4ctXqHw-4" value="Ring Security Camera" style="image;points=[];aspect=fixed;html=1;align=center;shadow=0;dashed=0;image=img/lib/allied_telesis/security/Surveillance_Camera_Ceiling.svg;" vertex="1" parent="1">
          <mxGeometry x="480" y="120" width="37.2" height="35.4" as="geometry" />
        </mxCell>
        <mxCell id="5Ddv7FsW2zNBN4ctXqHw-7" value="Smart Bulb" style="shape=image;verticalLabelPosition=bottom;labelBackgroundColor=default;verticalAlign=top;aspect=fixed;imageAspect=0;image=data:image/png,iVBORw0KGgoAAAANSUhEUgAAAG4AAACTCAYAAABvVyw8AAAAAXNSR0IArs4c6QAAAARnQU1BAACxjwv8YQUAAAAJcEhZcwAADsMAAA7DAcdvqGQAACv9SURBVHhe7X1Zjx3Jce4XWVVn753d5B2SM60hBWlmAGNsWD/PwP0b1z/A98EPhvQuyDZkGx5jYAkwLGiz5FnI4dL7OX2Wqsq4DxGRlVVdp7s57Gaf0XUQyVNLVlVmfLFlZFY1zedzxl0SA8wEAgAQGAxmBhGDyEsF8gB5uITBKODzOXyxABUF4HOgLMBcoCxy+LKorkF0PRgghgeBiQB2AAgu6YAoBSD7aZIhSToAZ2BkIOrAJRnIObiE4AkoQPBMAByICGACQCAQQNITgLVA+sZ2/CIR7B7hgF0U1aoT3SVwBIBD/xzADgwGUAIoAOQglAAV8osFvF+gLAQ4lAWoLMC+APsSBAYFhjXBk2MMEh4pcAKYA5CA4ECUgFwCcAeMDlzSQZL1gCSFcwnYJSgpBWt9uwcrcETSAnte2FTRbKMLwIEBR6sOHAeJFWaygMYLEOYAcgVwgfnsDL6cAuxB7IVdXIK9FALgyDpsYClwYHlE7enxcxUEdgATGCkYGdhlcFkPoBSUpKCkC5f1ZZ8SBU1+Aacax+AacEGF2olVW6sDiuNyaO4eOMR8ZRA8iArAz+HLcy0zKX4GcB40iwAQi1YRs2pMGnW40jTb94Ep0gL2kalmCtUZTgolgMvALgW5DC7tIc0GcElXnkWpgpwClACqcTHjCe4yDFo0DjXg2+hOgauIAfbirzgH8QJcTlEuxvD+HOC5AlaoGQXAZhYFcIBByECU1e8bd56AUqCrarAUhwpj4qoGE8FTIlpFKUAdONdDkvaRJB24pAt2HTB1BERy4kODr4P4wku4fBG4O9W45m0vMRVgsJ/Bl2NwMYUvRMM4nwBYIKESiROghKX1TqqKAJSpxtn5ZhsYHr521GoGxgasPUAlmFjABYE5ATgFswDm0i5c0gOlPSDpgkhMK5wAqJDoU1Sbw9OrPghwYRey22x7nW4XOOMGIzS+dl5/iRnej1HkBygWY/hiBi7ncKygkQc5aDAgDKkaXYUjoASEWONiIoAkYq09m+SORswkARMVYrJRAuw1iHJgn8BzJlGnSwDXAaV9JGkflPZASRdwHTBlAFnUKc+vLIT9r/wQ91u1oaq0lN4SuCsurQEnUhSuYA9CAfI5yC/g/Tny/ARFPhHQUCBxFoBoh0mAY7JO1wuTEz8TJDjokxYGs69FnkSNSNSuJdE4ghczDgZ7AjgB+wzeE0p4eAAu6cClfaTpEJQOwMkAnHRFkFTzYiTiKDMcvTAcuBy5twAu0qiriA2y6n/iEuRnQHEOFBOU5RSln8L7OQg5HHk4YjjWTjEBzoGZIOpn0SCByIHUt3AI0VsKi8BIpCljw3i/rhHSP2IPhgw1pB0JuExRMsPzAowScClc0kWSDOGSNfh0BE76QJJJ5KkCVwOrpmUNH3cFcER028DpeQOOGTIE9iAsgHIKvzhDuTgTn4YcoBLOlXBkkSLCGA+UgllBCuF7DJwDXHX8AnAA4ONBuQe4rICEr0CzwpXGEdSU+gSeS3ieg9kDTgIXR324dABkQyDtA64Pog7ISeACFY124MKOgLYEOCIZK94icNZx3WYoowoQCvhyCp+fwRdj+GIC9gsxW4mHcwquOJswQAYygNOgcezlHOn4iVwiTLwAmAIMCKMNJGIwiznkAKCCpYad2EfmVXvmAe8L1TgvbaAEQEeClKwLSgegZAiiIZwbAK6jY77qPu3QQM5Q7Hn1qIIG3JapVJBCI1nHZywDay7nKPIxfH4G8EwKSk1zMcgpA4FqYMupMAYKHKjKdsApmA6UJGJOgRpogU0KSqVlBlwFKFh8IUMG+hLQmNbpOS7hOVeNlXYSUjAl4CSVgCVZA9EaXLIGSgYAOXhjvF7VTu3AOVcduyXgKp9mIEogsoAvJsjnZ/DFBMQzOCw0evMiUU7uK9erz6IU4AxAJsxRM5kkGZxLdYArTNFheSgS1xiABpyCEFJiYjI1kxlMOgczWQbwRPNKqc+5aCqHhJemECAZF7cOchtIsg0k2RrYZWDXEKRWughcrG1Qcb4hqjMs4KYjXOIC7KcoczGN5KdIsACpxIcrVVsk9E+0SG4QkIFwVeS4FNHMkPHQfXJpKC5sZ3CJblvqipKQCZF0VgrnMpCzfXu+3pskSyPFLICYVmIvOdRiBl+cg8sZ2M81laeMWUqXAVrRDQEnklZJu5EdLcF+jrKYoCwmQDkF+QWICziUqrwEYjF7jhMQEhBSHZcJgyqmJiFP2AaWRXBsSWOr7ySBTE6HDZRU4DlJWUlde5YEHbIv9WMBAVIQUoBTEDvAi8A6Bhwz4AtwOUNZTOD9VPOvpQLXBp4FKVeD93bAWZgeaZpBRRbycy55x+IcPh8D5QzEuWqZNN50THyZZCegg1ziDMTCnEriTUMiLQxpKfN3GqjovozxNOoMxc4LWKZdHAFF8f0igSFtTwAPti8sFS7kAM/A5QRcnIHLMeCncrwNuEtAi80k8FY+LiYZ/IpXEp9BPgd4Du9n4GICzk/BizOJHjWiI1LwCGoalWEgZZSYy6BRlABOTBORg6Ms0gLxC0Q236bCpIN1EybJdXodo4k/tuAJkAyJZxsmSOaEUcowghnwJcjH4z8GvEalXOr9cz1HYs6pCyR9UDpE2l0DZetgGqj515mB2O8RLgwHbsnHNR7CBkqU5c8ngJ/BoYCjaHwGB7IELsREmvSaJBOqKRQKA27RBisCmgO56lilLbHWieZUxeqJ1okACvgyoLdO6bbdDyJUUH9XlQgAdRPEC8nB6kwHWP2dThCDGjmva9ANARcRy39kUss5ynIO7+cA5SBXhsbKNIxEi2BhQhwVsmqMMJBqAtk00ZbOtW3Sa+W4FWN2Ep5XmTcd5Jv2NojQMFdV/AV9lB6rtwuQAM37Ar5cgP0C7HPIPLpmZJTM81zHBN4QcOqrOM40FIBfVJl+TWMFU6qaY34ijM80axB8UoAhGq81x2nxdux3W7MnFEWrBlYFZCUAMZkQ2K4ipQcYqKZytO3BfAPBRHu/QFlORev8AsRlENVws7bHt9ANAWe+QrXMyyC7LGcoiyngF3BUghxLMQmNAGmatwv7Ts1j0A7SgbYCGkoDpNqYicIMt5QYPCvSqqVkgLWWCLjY94Kl/5zD5+cyz1hMAZ+DmEVcYmFoQYXZZjaEWqp8G7JYkmVg6guUxRxlPoXnOYgqvxYbtdDhsE91X1Hbj4Gr4lG5m4LfynAJPmzzaqo06XKSxsemrZKRWIgg/p48HBU6LJrWgNNaCnpD1iKKwbsh4GAGQyOzEmWZo/R5SGWBCMwOHBbpWMvEQTNZrsXOqSjEPg6Irl2yH2dDNHqU8FEDAYsEta31bdu/goLW6XMDeCQsteOhjQyCV1dRwpe64Mlb9BluHK5Z1goD74aBs/mrQhyw16wIWdbdGlZ/bEiP6WmR4rjjRjFDjGHSRUmSaXcNLIn3IzZExy+cj9J0Vl/Fn9rU4AJ4Fgap+Vf/HJ4LBuDhqAR8Di5m4GIO8EKHHSI0US+W0g0Cx2AUuoxuAfYzcLkAe8njAah8mfkYfXStkdwASpliLDFmhdgDAJOHpxKsywyE2eq3AuPbI26GgMx2MsYl/BOzR+oLZf8S0mbC/BbEF0umS+IA4gVQTIDiDOzPAcwAWsi0VuTHLqMrWnE9koSsDFiZ57oqK5f1jlxpm/kn4zqz+CrrU0wtAl0x17SSbA2JJIjlTlWl2OcRbCZdpVrRNC2L5bwyzNF9bAndFXyt+qqgxYUBsIfjAmTZpPIczHMBDaW044pn4KaAk74LeOwLAY0Lncqx7PkyihFZTtIXY29s6vS4rVZulJh14bgtVwjtis43zGdFzf3lRDBBi6LFZtu4RFkuUOQLcGnTQ3E7L6ebAQ5id1GK42W/0OV0troYFxsTYcW2fy0ym1cHorZ9gfn1QqzF9uNzLfXlvvr4ICzLqS6KpvexcOrUkffwZY6yLMSE2vOb5qeFvjVwITRVBiQECUrKBcCyboSogIMOurW+Nantt+nimmQrtOy5MtkZ7dcYLfuefSgyAarFWynr+2xRXht4tn2RSH0a4eJwooYD6wEWayTL5xU4FSgHhAVSy+hbA2dkzBJJkekb8AKOCjgqqkRy1GEDyI5cBVhFrL7MZte5Fo0BNjutQmLgRoW8FGGULo/wsh2yPjbrrYJS3TcO3SOKlamGW9QxVt8VZECf40twKUnsukm/nN4aOCP2JXyZy9hE59libVtGbwLaVSawAqvUEo3jLizDq0rNZAaw2n2mlOtQvS4DAbzQDvZgfWkFXOpy+uvRzQDHLMAVBeAFMMt8mxS9CT5t/KkEOmJy85c9vC/hvYdXs1c9/2rgrV4VoSpz1bQ161t72vrGMHfSPCNEsES8B3t9G4lkuktoyYVK1wROTFFsguTGlo0QCTepqRKndWo7VqNI4CszZ8zT+a7InDXNmzA33lb/FRcFplYUUFtnIqY0AivWBEEE5tvNStpQ0KrULxAfWLOjxADJ7An7hVoqGQ5Ehr+2F5drAodI4lD9EsvEoa74NZ8RAjtt5ZWAGTEAz2AfCYg3oYj9UikSatGhHQ9mmQOA9gqWBCEyiSpgSbE0GJOBa/c18NQ3GZnWhsg0Bs3Gp8ruME4U4KppITPfXtaX+rlM92j6K4BVE8jK5IPeBLhWakqCmQ7tacD56oErADG5slGXeAgQdbPItp4qHLftpYXtPhqURCAHYAOz5Di4YWJZ21croQPh//hoTAKgbeszzEpAJSAAvJzeErg6VZqmzwfeIPqoS1StRGwIliYCyo6L5LcAFoF74RjLMKAm2Wo2RZAqgORfJP3RuXoRMs27SDF4sUVicOPIMroR4ASgaF+37VDzN6aLTbTOR6YKqn2+CtOrXzWJLCYwSPCSYn6z7vsavtDqqSYE3xjVqbQ1am+8rya2EmR7zUp7ydrXOGbQXzl3Od0IcE1iiLRFbQmMbqPKMjSZIRIeMw46UDYgw36sNZeWKpC6UCKgTGiChsX3CG2rtDAEbgFEi2gj4wGbaRDklEUVvwIL2vkU040BJ7k5e6D8Sicqc2F7FVmzK/DMpMXMifeFIXWJD2aQL2pYXOQ6r2sbpVQLcu24+tIlpjD+1zwnpb5Z75NS2Iw5c7lwN+nGgKuo3hEJta2J1yn1ewieTV9lvqHuu+RXALi8GFARqNGYMzy/DbwLx2ITqW2v+eZmiepUe9H/zbrtdE3gSKu6wLL4XHiwmhYxGeYj4uZWDbJtRjReu9BgDoy5KOO6z1In+Ld6pUbR+9VMp97NQnh9ng0HbHhjRExwFgSx7BtHaha/1tL4hOzVe1Sdr2tnfOcwlwXwlbOCRvImCiFpLMyMfwnMHr608ZI1WhtiZiAwMLJ2shcaXkm+AqrAVvDoNpdSLFnsvYwBLy0lvJfUnH0fxXtNRAd/KYtenfcCEns4z3Asqz4dZJk5WbODS4z7adBUfJD+RtoYjfNg88RhFqgBWqNcEzgs0TYAYdJQ2mS5iaBFcSeizsSaUjl15UJkfmysFmteTSj0lV9Q/QXFpYVLXRpvAUl1baVt1TOAKoIwDZNZdS3Gj/gS5YXsR2DGlapws8ZSEdqLXG7SGwCnD2q9JQHhVV7UwnLxJYgaWxVG1cMqsLB6MWDigwJAcYkCDTlW6G+VL62KLK+o6kSA2zXhuW9DsZ8zcKzfej6QKUSsGHHddro+cDWHqxTUWfyfGDj7J9JtIXhIIdUaX+8IaYcrO+/ldA3wulDUtCkUWUZxsTTrtZXLGXZdIqChZc2T9msvusiaFhXnK+mawMUNsBsraCzK7dIMLu3oGn+rJv7JXpiQNJN1SGUh9ENNX21wbWO3aJAaFfN6VsTnFZXvCz6wyldaQCL3lgbUlnG2GBSrK6W577U7lcjqRZVtMgWsbqmxgr5KRhmSpCu8W5IerD/zjXOVzTsa20lemkhSgAg+OGpfzY1FWY/K5jcodgWBTECaxy/gWN2gFjU2NKopAEFI5PrmI5okNRQijhPizbYINeWgElSoxUrkBUp96eXKBii9AXB2x+adpSkM6AuDTnih9UTLLFWkUh46GAMJWVLOck9Z0mbLzKvnxCFxrcBFWYmLpXqUvPRv97aki/csH2Twcd9UAPU3tB12zxhoBTA8VI+aYGgjDGT2HqX3ADkBDukb5HWvDVzMhYtkTAEcyCXi60JVrnwHS7gt75/VuBndOtJi60i8NK6lNFNJS0tMei2zgCYWXRncCKLiUh+nRufs9gHg6tceZJtgwMuKCQAOLrH3ApfNZF6kG3ixkSUY4AXK4hSLyddYnL8A8TkyVyKFAqavAzOcmFUXve0Z5qo0a06QDthqYEJds8Ozoy0ybb3YHTliTiY+r2dUcBgsA+zY0ZlWBeArIMK1elyuZzj2IJ0msjlAER7oWlJGCY+Cu0i7u+iv/S+47ha868JDPnoqK6GX69UNAAeZaaYFfDHGfPoCs8kLID9FlxbIHBQ4eWkDqF7gqF7V1ewDCUhM+kYPXMNXG7jG2EgrLyMb6NaqCgASsZs26JNqwMWg6aGgRVYlaiEzEu9Bpc5ua/6TGYB3YE7kCAGeekj799BbewCkW2DqwiOr+mjDiRZaDukbEcnybLJPI/UAsgaWYCrgkcOjkKXiKMEoQpHw3dcGw8IOCS7C8IBVe222wOroUEVmnOuRpjDNrm8ELbHtwhITGV5Iqe4Z0l1qA2xZnU3OMssCXU8eHl7XWTNKYpTRMUpTpN0uXCpvwvrw3p5G5pfQDQEHlZIEiesgSbugJFEoGCWVClwOTwKeJwWPtYTuKRDKhIqJCH7FAKsDyAJSyz8Br1lXgdR7h98GeAICw2uBjlbtOw+yfMFA06GG9saAkmL7UjwYlCZIOh0gyQCXyMucF95maqcbMpWsS85z8XOzQ8zPX8AXJ0iTOQgF2DMIKZy9UWqfplAT6ohATgZSwd9ZAkh9nroJ7ZPVc8Gy1S2aVA7db5idajVVZfpaLaX6Pjsnucs48VyZWTnEgI4fGTk8F3COQOTAXkrhAaYUvdEO+msPQNkGCh6AfUc+vQHI15WoEeJGdGPAifQWgD/HYn6C6eQF8sUhiKZwyIWJXqTJewZRikS/LkdI4MjJoDTYAJM6M5RcgaeMdRbgKHNrzbH4jEnfz5MTRE4zNHLIwnxWoMOjVXTs2UbEDJSVqUQQGION1TIU8CzvUCRpgsQl8CVQeofSJ0g7A/SHO8gGO4AboOQe2L6XIh8KfBfAQScpS1lqVp5jPjvG+eQVptPXgJ8jIQcHyQywh2hZYjMOApqmxcM9q9BYGGisku9V2n5dPeLOEDTgkZMKnN4D8SvNWkMBsDoE+2K6nJfIlcGFrgSLL1YiQP2tB0OAk4VIEgcwJ0jSAfqjbfSH26DOCEwdeJaPtFnrnLs8OLlh4DR48DmKfILJ+ABnZy+Q52Og8BJ3QAa9MgA2wEzNVPLBajIt4lQG1YYO0HPW2YBUDGVUV+5dDZoFOHuc6dVFKBje11kU6ujhag1KdUK8nHzrK3GENHySqoNufxNrG3voDjbASReeZexLxkdYMiO6ZYNuELjQC1njSB5lOcN0doLZ9AzlIg+DZO8ZeV4gL0rjtnSWNTqEfCkuTeUPNQjvCWmaRWMsgnMJnFMTCwWN5H4VtlXvPXS+jr2a22j+DhoRWmW1nOxL5IvcsK1lgFg/ZlMWBXypwQ/r/bkEs0TMzjlkaYY07SBLexiMtjBa30HW6YNdCq8xonh0kSSy724uoRsETn9NbIlRFgXm83PM5jP4okBZehR5jrwokOc58rwIk5demUFEcM4hSRxcIsA4cnCJQ6fTRWJAORc+A2jXGIi1dkX7NaYj8m+aR2VmlKVH6UuUZQlflvDM8KVMsvqyRKnL220/bHu5ztsqaIIEJa4ao3Y6XWxv7eDevT0MhiPJMrGafpHdyilUzr6Vbhy46gChLEvkeY7FYoGiKFAEwKpSrfNvAqegaUmSBFmWhePBD0Wgxd9zrJoRA2caIV227fj5AYRSwYuBifaXbXvJY4lwNQSq0+ng/v372NnZQZbJR79ZQQaJNQoK0OI/Y7rY029JbegTUWB4mqYBgOuXFGkqJQayDbSrOnodipl9sS1JaEezxMcvqzMYDDAYDJBlWa0PkmttEf5L6MaAg4JnxcjASyJNaWNOrDVWksSFiLMNoLZjb0v2vPiZ9TZJW5ttvqwfzIxOp4O1tTV0u13ANO0t6EaBiyk2e3ERplxkQhuIcr3cw5iJFvNo+1anef7NSnWPZfdaBl5c4us6nQ4GgwH6/T7SNA39eBu6NeAQSVXViURLpYVJUq0cixnVdiy+lzGNVKObjPu2xYRKti+CdtlxK4maRjOb3W4X/X4fnU4HTjXwbelWgTOyjqZpgjS9qFVXlTZmxeftGW9SZMjQPCYxgm0vo3r9+j1i8AzAGLir7n1deifAYYl5i48tY8Sy8i4ofk7b89v27Tfua6fTCdp2U3Rzd2qhZmedc8GExFrU5t+agDapDfy2+zSfXx2v7tVspx2L79lsU7OdVsfMo90nyzL0er0Q/t8U3SpwMTUZ3GTAZUzXO9Tu1QbGm5a2+8T7zfZYidvfrG+/pL631+uh1+vVwLwJeqfANTvYZJoda/uNo734frdd2p7V7E+zIKTs0hv3bUbvDDi0aJ1J4WVFwGtqX3W/ePttigUrzXvHx9rO0RJtderber0e0jRt3uKt6Z0CB+1sotFWxbT6+ea+HKozC40U1rcNsSsQvt2gOH5+DJxFk3GW5CbpzoBrmks7dxm1Ad0kq7OstNU183YTZM9wzqHb7SJN028lEFfRzbX4DckY1gTvu06mfVmW3YpvM1oJ4Ay8PyVK0/TGhwAx3Tlw19W2a1R5K1+HxvVv4jvjuswM5xyyLIO7ofRWG71T4GJfE0eV8fmboCYjl4EQ7ze32/avKjavl6bprZpJvGvgmtQcEnxXqCkARiaQnU7nxmYBltGdAdfUutvs5G2Ttd/p+NSAu026M+C4ZZmCgbdMom+KYlMYbzepWS/+bdIyF3BbAnlnwKEBXjO6XMagJsX1r3NJG1CXXWf1OfJh9ouWcaMl0W8LMKM7Bc4o7vib0JvWf1NqalkT9Pj5JoQ2DLjttq0EcN91MkBdNG31Jw/c23SwafLa15q9OyKiMH67bbr9J1xC1AhO7FjTBMXUNF8I4H97AbgpsuT52wJ3HWF+uye8JTWBixtMRBdAayMLFugaa0VugpptMkGzfiSJvJRox79NuQ7dKXDQLHozoryMrE7cSfMx17n+NogaU1Xvgu4UOOlklbO8imKw4l+7vqkNRksO3yjFZvI6fXlbujPgKkZzAM/MjUVmbb7CwLE1+jbfZftomNkkSULEZ1rZ1FTn6ib6Mmqej58jS+1vfyiAuwTOSJhZX06+TGqNSQaU9x7T6RQvXrzA8+fPMZlMAhj2gsl8Pg9v6cxmMywWi/ASignGYrFAnufh5Y2rKAbfyIRuWdtvmm7sbZ23pTzPMZ1OsVgsAvNNQ2I/GGthkiQ4OjrCV199Be89dnd3sbe3BwA4ODgAFBRmxsOHD/Hb3/4W/X4/3GdzcxNFUWA8HsN7jyRJ0O/3MRgMgnDEQmLAxu0zoIfDIba2ttDv94GWIOam6c41zqjpq5Z13I6b1NsUynA4xGg0AjPj9PQUs9kM3W4XSZLgiy++wGQywRdffIEkSTAajbBYLPD111/jxYsXKEt5+XA+n2M2m7U+r42aAmZtfxe0csCZRrUxoHmMiNDv99Hv9zEcDrGxsQHnHKbTKbrdLnZ2djAajYKfm8/nuHfvHu7fv49+fxAAHg6H2N7eRrfbRVmWNUDsuZcJE2lU+S5MpNHKAIdIi9p8iPGsyTzzLfP5HIeHhzg4OMB4PMZ0OsXR0RGOj49RFEW47uTkBK9evcJsNsNoNEKv18NiscB4PMZisaiZYjT8avwbk43f3pV/w6oBZ9QGXEwxE9M0xcbGBnq9HmazGbz3GI1G6Ha7mE6nYGbs7u4i1eVy5tM6nQy7u7vY3t6G9x7n5+dIdOWx3bupaW2goQHcu6KVCU7KssRiscB8PkdR6LvhUXAirz9V2miaRkThNWXJoIjf895jsVjAe0aWyfDin/7pn/CjH/0IrKuwnHPw3mM+nyPPc7jGWhELSuISg2j7/X4fm5ubGA6HQeCWgXxT9O5E5ApaZiIvI2ZGWZYgInS7XQyHQwyHQwwGA6ytrWFtbQ3r62sYjUbIsixEfb1eLyxWzbIMg8EAw+EwrPG3e8fatuxYm7bdNmhYReBsu3lsGcV1Yi0w7Un17Zksy/Do0SM452phvd1DvlLU9KuVdjXB4MbK5XdpJrFKwGEJeFdRfE1ZlpjP5xiPx5hMJphOp5jP5zrALjAcDoNZnc/nYdxoZrZJTQG6TpuaAN8WrYyPY+aQ6bAshpEw7aKPa0ZxZVni/Pwc8/m8pgFJkoSxmteBNKlv7Ha7YSmd3cs017Sy6eNiTXTOYTAYYGNjo/Zi/nVAfhtaUY1rk+6L5qqNDFAXvWRogEFznMb8pslso7ZzcdtMiN41rZTGmQkTjfNglihRiILGxeDETIw1AQ0GmxZUYzr5kzJWx4A1UE0z4/0myMwcMjGj0QidTqf2rNukdy8qV5B1mC5MjLZnMqwgGoxbtBiXTqeDLMvQ7Xb1LVF5od5mIS7TmsuExazEbQPVpOWtvUNaxoQmWLHviUvzE01xkeuq65vUFAbScaGF/XH43wTxXdLKmUqbYjFGN8mkv41hbceMmucoSgizfhUvBtfMJHTOLz4n1wi4ToOT4XCILPo+V/N5N00rAxzpR9vOz88xnU4DePH5mGKNiE1VXK95DZb4P9tvalt8zqhZxwbwvV4faXr1R7BvilYOuMlkgrOzM0yn01aNazLWmNpk9lUUg237WAJsvG1+lBlIEoder4fhcIhut3vhnrdJKwMcNLKbzWYYj8cYj8caAdrZ9oAEyswmNRnY1MjmNU2mx/vNe9mzLc02GAyQ3vJLHk1aGeCqwEGSvpPJJGT7jeJx11Vat0wDbSVWEwyKxmO2fRlwzrkwD5i9gyXnTVoZ4GIwvPc4OzvDH//4Rzx//ryW2djc3AzLD+w6Uv8kAQXgfRnm5oypcThvgcfOzg42NzeDtjTrkY77zs7OMJlMkCQJvPdwzmF3dxf37t27lY/PXIcu2pg7JAMnib44Z9MszjkUugDI6ppSGeDyK0B2u90wMF5fX8fGxgY2NjYwGo3CdyMNMBOatkjW2tPpdNDv99HtdkMUaX5tmXbfJq2UxsVkkn54eIj5fA7vPYqiRK/XCxkUY3gMXLVPYRBvAYVpW5qmKKJVXvGzDahYi+yaLMvgvQ8BSZZlQeP/v9a4mCyVtLW1heFwqBLfQ5bVx1RxMeaxrpU00xYXA8m+ZtcUmKYwIPqCgtOpom63G0C/K1oZjQNQW3EsGuXD8MCmX2Km2m8bE5vaYiDZcdOoJnBGpqnyaxOlslTCPvNk93jX2oZVA65JXocHJycnODk5qa25tPOJ5iYRBSp2zutSBqezA4vFAlAzDAUn1kJE4zTo4LrT6YTpGqdrMS38vyvQsMrAGUB5nuP58+f4t3/7N4zHYyS6oMeWGtgyBAOH5Y+EqE8swpDCNDfPc5yenuL09DTM3VmWJk1TrK2thYW1GxsbIeTP8xzMjKdPn2JnZycAd1e0ssCZGSuKAs+fP8ff/d3f4fj4GMPhEPfv38ejR4/w3nvvBQ0wrYs1rigKnJ+fY7FY4PT0FMfHx3j58iWePXuGr776Ci9fvsTp6SmOjo4wn8+xtraG733ve/jzP/9zfPrpp9jd3Q2+7fj4GLPZDE+ePKktCroruugcVoRi/yUpJhmn2SA8lngzh2ba4mIRopnUeD/RSDNN69eZFltJ9SWUVQhKjFajFS0UAwUNMuy4rRERpkvEZyBYQGFgxsfN5yGaKRcBkUyIaflisQhm9Pz8HCcnJ5jP5wFYqxf723dNKwsckWhQoutFLKI0jTAgpK5FkGIeF4sFZrMZptNpyJJY3clkEmYgFotFAGE2m+H8/BzHx8f47//+b/zHf/wHPv/8c3z22Wf4+7//e/zqV7+qDdjvmlbWx7HOkeV5jpcvX+KnP/0pXrx4geFwiM3NzbA4x/4Qg5lFM2UGli2yPTk5weHhIc7OzvDixQu8fPkSh4eHODk5CS96DPWNm729PTx+/Bh7e3vo9XooyxIPHz7EJ598gk7L557uwt+tLHDQAKPUJXe/+c1v8Mtf/hKTyaSmVcwcANza2gq5Rxu7mVmdTqeYTCZ4/fo1Xr16hdevX+Pw8BCz2SysYt7e3sbTp0/xZ3/2Z3j69ClGoxHKssTx8TFevHiBH/7wh9jf3w+aZ/Q/wEUUmzdmxjfffIOf/exn+Oabb5DqR6pjsCyQ6EQLdvI81xdAZjg8PMDx8TEODg5weHgYgDPQ+v0+7t27hw8++AD7+/u4d+8eBoMBOp0OiqLAy5cvce/ePfzlX/4lut3unZvLlQXOfI/XaZ5f/OIX+Nu//Vs8e/YsJHg7+oeGbLxlPhGRH7Jf82H2a+O68/PzAN5oNMKjR4/w0Ucf4fvf/z52dnbQ6XTAzHj9+jW63S5+8IMfBOG4S1pZ4IzKssTJyQl+/OMf41/+5V+Q5znW1tYwHA6xvr4eMv+mHUnjy+oG/nQ6DcHH0dERDg8PcXR0hPF4jPl8jrIs0el08N577wXgNjc3kSRJmJHY39/HgwcPwvDkLmllgeNoquXk5AQ/+clP8PXXXyNJEmxubmJzczPMp9nLi04/GW8BigEWp81evnyJ169f48WLF3j16lUI9b336HQ62N7exnvvvYf33nsP6+vrYb7t/v37+PTTT7G5uRkE4i5pZYFDw8z9+7//O379619jOp0i05c5OvrnvSzp29E5M8t2lLqGxXydTRMdHBzg9evXODg4CG+leu/R7/fx4MEDPH36FE+ePMHe3h4GgwHOzs7gvcf3v/99vP/++8Ec3yWt7Dgupm63i/fffx9pmmI6nYY01cHBAQ4ODnBycoLxeBx812Qyqb34MdOvLRS6Uno2m2E2mwUTCZ3m2djYwMOHDwNw+/v7ePz4MTY2NrBYLPDq1auQoL5rWlngzEx6zTmOx2N89dVX+PLLL/Hq1SuMx2OwvqDY6/WCpiH6goOtWzH/Nh6PMZvNwiRqnCLr9XoYjUYYDAZBW22NZ6/Xw/b2NtJb+hsC34aSv/qrv/rfzYOrQgbe6ekpfv7zn+Ozzz7D4eFhGJvFdSy7kusbP7Gm2ZhPQKuyMHHqylJkma6TtOS1nbfhwtraWvChd0kr6+NijXv58iX+5m/+L/7rv34fhgCWQbF1JfamqQUncXBjswSTySSYVxvPnZ2dBR/X6XSwu7uLJ0+e4MMPP8TOzk4Qiq2tLXz88ccYjUYrAdxKaxyirMRkMkG/38fOzg52d3fx4MGDMLWzt7eH7e3tsCBofX0do9EorAvpRJ+SN020YMXGcabBVs9FK8JyfV9vfX09mNKY/idz0iDTmrIs8eWXX+Kzzz7Dy5cv4XXm2yZULVdpvsqiSmbGdDpFURSYTqcYj8d4/fp1SGE9f/4cZ2dnKIoCRITRaBSiyo8++ggPHz5Et9vFyckJnj17hr29PfzFX/wFBoNBrZ13Adzd6/wlZH7HxmhxotgCDsuGmB+ziPLs7KxWbNb7+PgYx8fHmEwmKMsy3DvLMmxsbGB/fx8ff/wxPvjgA2xvb2NtTV7+39jYCACvAq00cEbn5+f413/9V/zzP/8zfvOb3wRNSZIEg8EgrJ3c2trC1tZWMGkWbXb1CwtJNJmaZRn6/X5YZznSLzMUuizw5OQEk8kETpPP+/v7K5NgxqqbSqi5PDg4xF//9f/B559/HhLMw+EwMNxyl+bPbNqFdDEQgDApen5+jtPTU5ycnNTWnTAzer0eHj16hI8//hhPnjzB7u4uOp0OzvXjNfv7+ysTnKwwcARAosLz83P8wz/8I373u9/CRwtSTaviSBK6DtI5mdG2yNTGcZantNmB4+Pj8GZQmqbY3t7G48eP8f777+PevXvIsgyLxQL379/Hj370o5VYb4LvQlTpdYlCp5NhpvNvg8EgJJfjCNJ8kWniQBcRdaJJVosqz87OdEA+h/eSPTEtNUqSBMPhEPfu3cPe3h62traCQNw1eCuscfVE82QywX/+53/i97//PcpSlqJb9BiH8KZtUNBtLaWtI7HgxLRtMpmEJHO328Xe3h4+/PBDfPDBB7h//34YZvT7fayvr4dn2DPvCsCVBc5AMyrLEq9fv8YXX3yB8XgMIkJHX8iP65o22DAiz3MQUS3HGQN3cnISTOX6+jqePHmCjz76CI8ePcLOzg62trawoZ9TtCmjWFjsme+a7t7LXkJNs7Wzs4Mf/OAHYVEq6zcova7eIvVplvayPKX9jsfjMDtwdHSEo6Oj2uyAPY81B7q2tobNzc0Q8MSA3XXKcqU1Lv41cs5hsVjg4OAAv/vd7/DNN9+E8ZWZQwtEbKbA1q2Mx+Mw/5bneZgg7ff72NjYwP379/Hhhx/ik08+wSeffIIHDx6g3+9fqVFXnb8N+k4BR/oKlNflDM+ePcMf/vAHHB0dhTSWRI1HODiQqPHw8DBonS0yIn1/rqdL2Le3t/HgwQPs7+/jhz/8IT766CM8fvwYw+HwQujfFKS7opUFDi1Miv0XdGxmJi82gTbbbX7sXJehl7oK2uniICsyBHgfT58+wZMnT/DgwYOwarlNm5rtugv6zgEXUxyAnJyc4Jtvvgkalud5SH+VuiLapnMQfWeyo8sVPvjgAzx+/BhbW1vo6ts5Rm3PvWv6kwCO9FMbBwcHeP78OU5PT8Pc3HQ6DXVtuygKJNHrymYmbZzWNI9tz71rWumo8ioy0+n0r9xvbW1he3sbzjnk+lqUrUVxujjWks02TfPo0SM8fvw4LKRtgrSqtNIadx3ixjvYZ2dnePbsWQDHwJvNZmHZeZZlePjwIfb397GzsxPm7cx/NsFr7l9F70Ij/x8Eg5yFrm43zAAAAABJRU5ErkJggg==;" vertex="1" parent="1">
          <mxGeometry x="750" y="210" width="57.62" height="77" as="geometry" />
        </mxCell>
        <mxCell id="5Ddv7FsW2zNBN4ctXqHw-8" value="Smart Plug" style="shape=image;verticalLabelPosition=bottom;labelBackgroundColor=default;verticalAlign=top;aspect=fixed;imageAspect=0;image=data:image/png,iVBORw0KGgoAAAANSUhEUgAAAHYAAAByCAYAAACGNiUHAAAAAXNSR0IArs4c6QAAAARnQU1BAACxjwv8YQUAAAAJcEhZcwAADsMAAA7DAcdvqGQAABV8SURBVHhe7V3NjxtF+n6q+tPddmzHk/liCMkQVqt8sggJJJbLrhYJidVyQkhw4cSNv+F34sYR0F7DYYU4E+2yK7EgASIsCJFNgCGQZGcmmcwQeyb+6g939+/gfmvKFXsymXgce8aPVHK7u7q7+n3ej6rqqmrmeV6CHmCMie0kaWeT97VaLbE/jmNEUSSO+b4vtqMo6jhG5yA9L45j8V+GvD9Jko7/mqYhjmMkSYIkScAYE9elfbRfvob8y7kG6XDHPeQyqlDz0L0IjDFwzmGaJlzXhWVZAADOucgjg3MOwzDEf13XoWlaR9nvFWwrYqnAQRCg2WzC9320Wi1xPIoi8UBqIVTByP/VYzJUMmWogkmSBFEUgTEmkgyZbMov/6r5ZajH1LJ0IzVJFaPVigAk0DQNpmnCcRzk83lomoZ21nY+9ZqEOI6h67ogmHMOTdOALuXqBeZ5XkI3IS1ptVqIogiNRgONRkP872VZhF4FVfdvVTj5HjJZW11jq+v1Ipxz3vWaat57he/7aDQaiKIInHNwzpHJZGDbNg4cOCA8zU7vQySbpikUvZuMmOd5SZIkohCtVgue52FjYwNhGApXSeTHcXfyGNtawDJ65WOMCc2EWlBF6L22Vajktf+zDhfcbyRJgmaziXq9DqTKmsvl4LouXNeFaZp3lGsrqHmJK03ThEXTfoJwxZqmIQgCrK+vw/d9xHGMMAyF60jSeKW6Q4Iq+F6WR/97odcx9eF65VMh50uUWNhv0L3aBhCj2WzC8zwgFbppmsjlcshms9B1XTm7O7YqL3FCLts0TXGMeZ6XcM4RRRFu3bqFZrMpBEAXlYXTi9gHje0QvZWQ+g0SehiGWF9fB1JlLxQKOHjwIGzbTvPd6e3Ucsr/e21zzmHbNnRdR5Ik4ED75pVKRbheOoFMnixuO8J7UJCVsVcaJFhaceOcY3JyEmEYAoBw0e2KZ2f+bik9KqXOcwhxHIvKLeccnDGg0WigXq+Lhx92EkcJhmEgiiIUCgVRGY2iKCWgvzKOomiT3CAIBKlBEKh5x+gDdF2HbduwLAthGKJWq8HzvLSppua+E21XvemyZcNTLZwslzebzY72aLfM6sXG2B542qRK0qZkNptFHMdoNBrwfR++73ftiFBlLicKj5thktLmNaIoAqd2KrWthrVytBdg2zYMw4Dv+2g2myLu7obMeRAEosLElHbkGP2FaZqwbRtJksD3fYRh2NHV2k9wchVkrYOuPe4nUC05iiLRrLwbsVuFwDZn7aTmET6AfP2Y2N0D5xyWZQlyE+WlQ6+EHnF3K3A6kfz8mNjdA2MMlmUhSRJRr4nSN19bJblvYbvgpDFjax0MSM5xR//7Zn98t6QSLRMuX0cGp9dwY053H+RayZi2CzonSjs2KKlEy+6bb7I9+G63/Yq7xcftQiZStXxB7JjUwWBQcuZxfO+uYYzhB8cAtWi/Q3abu43+92WN0RMUW/sVY7cCH8A99i3a1tlucZCRdiOXmkDbSdtB0n7RPnbFu4t2i6Od7iR0t6x37Ir3GMiyx8TuUYyJHSAolu6mC2b0Ml49MMbewFATu1tavR8w1MRCeRsSRZtvMajTm4bHjgKo7IMo79ASqz6853lYWlrEL7/8goWFBXz77be4fv06kvTd5ihgTGwKWQC1Wg1nz57FK6+8gr/85S94+eWXce7cOei6viuDwXYbu03uUEtE7jgxTRNHjx7FiRMnYJomNE2DZVmiFjiqaLc71b33j6GVCJFKzQPDMDA9PY3JyUlomoZImhcrNyF22xL6ic36w9YD2naCoSUWXbo6aY6pruuC7FG32N3CyEiEMQbTNJHP5zdnlKWj/UbJSgm7XeaRItayLEEs0B5ZSWOBxujESBHL08nD5HpHqQ07aIwMsUiJNE1TkDyKFaZBYWSIJQKp4iTv209oN4/u3j4aOWLlxTT2I6jSeLcwNDISIi3VNE00c/Yjms0mbt68iUajsaXljgyxBM75tldc2YvQNA3FYlE09XphZIglN8zS3hra7ja9YS+i1WohDMOOMBTHcceyhzJGhth211sMTdNg2zbidAY+rXG0V8FYm6IgCMR6iyqRXXgdLWJpUlIYhiLOksXuVTC2ubbivTznyBBrGAby+TwKhQKeeOIJPPvss5icnATSuLuXEUWRWFaoOzYX3aTEvv7660TTNLiuq+YeKlBlgdZK8n0fhw4dguu6I/OiHQDCMMTi4iIYY3j44YeRy+W2XFuRMQbP86Cli2uqx+Q2vazgI6PqVGFyXRfT09OYmZmBaZo9Kw97BWSlyT2OFBkZYmOxaGeCMAxFkydRFpvea6Aa/73WJUaGWLm5w9PVbWRXtFcRhiFoySZyx/V6Hbdv3+5oDahyGBli9ytkS03S9aGuX7+Oy5cvi1VVu2FM7JCD1puAFGfz+TxKpdKWMXdM7JCCOmTkyiHVMWzbhuu6IiR1w5jYIQURG0lDf4hkehFC+bphTOyIgaffAtgzr+32K1TyiFRqIRAS5SXImNghB08/tsTSt1phGCIMQ2iaBtNsf6iJCJXbuWNiRwDUSWEYBmq1mnizJS89T5aa0Eq20vljDCHIEuM4hmma2NjYQKvVEl8uU10wYSDEyjdV48KgkaS1zW7CGEaw9Mtl5IqLxaJo9rTLvylPqlAlg1qDQiaTusaoa3DQkEdhqBWTYQTnXHQpJkmCbDYr3nRlMhnQGpiqkg5EsjwdVZekbuXatWuoVqvAA7Baik9E7rBD07SOj0VqmgbHccQXLnthIMRCeq+4uLiI9957Dx988AGQFnQ3QVZJRF67dg3nz5/H7du3O/INguReHqLXfqRG0Wq1EAQBWDoUiEsD51k6ikQFp4Ny6jeCIMDy8jL+9a9/4e2338Z//vMffPzxx/jll1/UrH2H7C0YY1hYWMA777yDd999F99//z2i9KuRg4Iq624JUhOGiCyXy2JbDWXyx7DovIE8URAE+PHHH/Hvf/8bN27cQLlcxvLyMj7++ONd/4iT/MD1eh1LS0toNBp4//338eabb+LcuXMi7g8jkrRveG1tDZ7niQoS0rDieV6bSEU5B0KsruuYmZnB448/junpGbRaLaysrOCTTz7B0tKSmr2voI50TdPw888/Y3V1FbVaDWEY4quvvsJbb73VofHDBsYYcrkcGGO4cuVKB4GMMVSrVRiGcUf5B0bs1NQUTp8+jVOnTuI3v/kNgiDAhQsX8NVXXwGSC+k3yJ1Vq1VcvXoVq6urWF1dhW3b4Jzjz3/+Mw4cOKCeNjQg1/vQQw/hu+++w9WrV+G6LgzDwMrKCoIgQCaTEW6cLHogxDLGkMlkcOjQIczNzeHMmTN4+OGH4XkePvroI1QqlS0HdN0PaJL0lStXUC6XcfnyZTSbTTSbTRw9ehQvv/zyrilVv8AYg+M4ePLJJ/Hhhx/ir3/9K86dO4cbN27AcRxRj5AxMGIty8LBgwcxOzuL+fl5nDp1CgDw6aef4ssvvxTttH4jjmNUKhX873//Q7lcxs2bN2FZFjKZDF599VXMzMyILrthgmyB1PF/4MAB/OEPf8CpU6fwyCOPiAF9bdl11q4HQiwEuTampqaQz+fx29/+FnNzc8hms/jb3/6GRqPR1wpMktaCgyDAtWvXREylD/KePn0azzzzjIhPqsYPE3Tpa5YTExOYnZ3FxMQEHMeBpmmpUnZ6HU4C2G3EcQzOGQqFAg4dOoSZmRk89thjKBQKuHTpEj799NO+loM0vlwuo1wuY2FhAdevX4eWTmr64x//iNnZWdFhMUwWq8qBpQP5dF2HaZrC4xiGIdywes5A1ZQqMqVSCVNTUzh+/DgKhQJc18W7776LWq2mnrJjkLWurKxgY2MDX3zxBUzTRBRFmJubw9NPPy3c2DBaq+yKKem6fkciN035CQN/oiRJ4LouJiYmcPToUczMzIBzjqWlJfzjHx+p2XeMJEmwtraGSqWCixcvolarIUkSmKaJ5557DkeOHAGkHqlhg0wSkaZpWkfqZqkEjrRKDem9327DcVyUSiUcPHgQJ06cgOM4KBQKeO+9s7h9+7Z4iF6F3g5838f6+jrK5TI+++wzVCoVrK+vI5/P47nnngNPV5wZBcjWaxgGbNsW1kr1EgqpIq96kUEgSWI4joNSqYT5+XkcO3YMmqah2Wzin//8J5DG5J2Cc45arYabN2/i4sWLCMNQTAd56aWXMDExIQQ1DNiOMcnuVk698ECeLEkSWJaFYrGIiYkJHD9+HEnalvz73/+O1dVV8C2GVt4NQRBgaWkJS0tLWFhYAAC4roszZ87gT3/6U188wv2CnldNvaASSkrZ6xxOD7f5kLv/sOQ2XNdFsVjE4cOH8eijjyKOY/F7P2GhUqlgeXkZ6+vryGQymJ2dheu6eO2111AsFpGI78Dt7Pq7ia2emQiVrbdXnNVef/31/6MaVpIkHeNodhuMMfi+D8/zkM/n8fvf/x4vvPACpqamOt6b3it0aa3FfD4Py7Jw7NgxvPjii+LYgwBjDHEci1eGVDa1/U7lU0kmgyCo23JoYd98801iWRZs2xavsNQL9hvkdoi4lZUVGIaBYrEISKMcdhpnDcNAEATY2NjA1atXsby8jMceewzHjx/fclrEboMxJubHJknSdX4sySRJByXIXJCyy9eTt2UFeSAxlgpP24cOHcLU1JSwJnLFOwW9zZmcnMSZM2dw+vRpHDlyZMeKMop4IMRCIVdP11eQrVjWxnsFxVBaZeXw4cOwbfsOV7aX8cCIHQTI5RPRtD0quB8F39PE7hXshNyhI7YfrngUID+n+qzdvIqaX00qho7Y/YpeBG0X6rljYocYbIsOiLthTOwexZjYPYoxsXsUY2L3KLj8JmUnQfp+IXciqGm/Q+VjqyaO+l8QSxgLdHQh97LxSFqhW2V9jMGgH3InQqN09jvn6TQ9YrsfN9lP2Km8+hVu5NAl94dz0zRRrVY7Vu0eY/ug8b69xiTJSSZBfdcqQ85H/7sdk/fLpCZJAq7rupjL0utGY/TGwsICzp49i1u3bu1YfqoxtYftdE8qZDLJFUdR1CY2n89jbW0NYRh2PXmM3lhcXMT777+Pb7755o4hLtuBSiqkeKkm1UplsHSAgrBY0zRRLBaxsrIiLjjG9vG73/0Ob7zxBp544gn1UAdItp7noVargaXLDkTpByyIvLu5aMrfSj96Qds05IeO82w2C03TMDc3h88//1wMahtje8jn83j++ecxMzOzLaOgkGdZFng6k061UChNF/W4bMHqPpbObOSO48B1XRw8eBBxHOPChQtqWcbYAlEUIQxD+L6vHuoAVaBotRzLas/6I6u9W1IJjKWmjUqs67rtGGuaJlzXxcmTJ7G8vIwffvgBUbqcqqwVai2vW3zYb5Bru6o8ZPmxdNWcWq0GTdOQybSnafQiTna58ra8TyaXfmkmHuecI5fLIZvNIp/P4+TJk1hcXMR3332HKIo6PsSrQnXZKumb5O9dBZDJjBVXHKfrX9BvuVxGrVaDZVlwXReapiEIgg7LlN2vShpdh74TEAQBfN8XrRrbtpHL5dqjPX3fT5CuXl0ul9FoNLC8vIzvv/8emqbhmWeeQS6XA6RPhRC6EdsN7Wz7I26rRJOMoijC+fPn4TgODh8+jKmpqQ6L7pQtQxx3WjGkypOsMOQt5ufnxRhlzvkmsXTztbU11Go1VCoV/PTTT7hw4QKOHTuGp556CqVSSbr5nQ1nVWMJ+5VYljZBHMfB559/jtXVVRw7dgyzs7PIZrNCLonyTR3f9wWhZMlIFSUIArTSBb10Xcf09DTm5+dhGEZHc6uDWKQE/frrr2g0GqjVarh16xYuXbqEn3/+GXEco1AoIJPJwHEc5HI5ZDIZZLNZOI4D27ZhmiYMw4BlWR2xh6b80cOSm6ZaOLkhXdfFQzHGwXnv+aukTDSfhbQZqVA7pjykAu91rX4hkZY9oO7aK1eu4Pz58zhx4gTm5uZQLBZh2zY8z+tY8JIsMAxDIDU0crmULwgCFItFPPTQQ5icnIRpmkoJ2riDWKSFq1QqaDab8DwPnuehWq1iY2MD9Xpd7KPjtK/dwZEgSdrCNk0TmUwGtm3DcRxkMhlYlgXDMGEY7UqbaZrQdV1oHLkSns4Fpa46zjksyxIEcWm1NSJLdm30n56n/Yuua/z2E6S0uq7D8zxcunQJX375JZ588knMzs4KMnzfRxiGwhojpYJEsZeexXXbc4pnZmbEhx7oXt3QlVjGGFqtCL7vodFoIAgCNBoNUQiysJb08iBO/X67MAmCwO/QtiAI4HmeWPCRjgXSx4JIGXRpCr6WfthAtnjOORzHgWEYwjvISkLnU41fT/tyqewEuez9Ainl2toa/vvf/+Ly5cs4fvy4INVxHIRhiHq9LmRG7pXkQwuJ5HI55HI5lEol5HI5IYNWK0KSbF3mrsTKaJt/iCDwEaUfDSRSo3QSl57OuaH/XHKL5GLpHHI31DAP06XQSQGoNyWKInieJ9xRs9ns2G+kX7GA5HaJKFJApIImohljyOfzsG1bJGoe0DYpC12PSCcLIddP96V9pEjVahUXL17ETz/9BM455ubmMDs7my7dY6HVapPaaDQEmc1mE6ZpolQqIZvNikSWSZ6IZIaUF9lbqbgrsTKICCKNvhVOBaXCtlqtDityHKdjKVYSHpEsJ0id4Ekar0ir6UGoDFHaOSC7MDnJx0h5ZAXwPK/juJeuS5ikPUOZTAau68J1XRw4cECEE3oewzCg6zp838fy8rKYaN2eZDaN2dkZsSSDbduo1+u4ceOGsFjDMDAxMYFSqSQWWSElvF9sm9hOzWBgrDOmkXUSyLqr1aog3fM8ABBtLTqXiAvDUFTAyHqsdP4oWU6UdpzQvclLkMeQvQRtk5KQ16BE++mXQoPvB4jjtqfwPC/d1w4tvu+jXq+jXq8jDEMwxmDbNiYmJjA9PQ3XdVEoFFAqlZDP50FdtpVKBT/++CNM08TU1BSOHDki5sci9Qjo0hbeKbZNLEEmU9YsmXjZRciWR/mjKBK1X/mB4jgWgqvVamg2mx37qtUqms0mkFq9bdvIZrPCjcqxWS4L3ZfKQfci5ZK9ELn1ZtMTbUnyDHQeEYp0yiZPK3Y8rSMUCgURKsIwFItyzs/Po1AogEvhSgbJSN2/E9wzsf0GCehuIEWhX2qOVatV3L59G/V6XViVHH+Rvgy3bVvsJ3KpqUDXJIHzNC5v/mrQtM16Q0tqc5KFUYylX103YFntUET3JU8zCIwcsSpk60SXfGSR1DRbW1tDvV7viLdEjix4zjUwtkmYlc76p+YYgSxck5bmoWYd3V8t4yDw/5jlTSyrs9N7AAAAAElFTkSuQmCC;" vertex="1" parent="1">
          <mxGeometry x="755.87" y="390" width="51.75" height="50" as="geometry" />
        </mxCell>
        <mxCell id="5Ddv7FsW2zNBN4ctXqHw-9" value="Ring Door Bell" style="shape=image;verticalLabelPosition=bottom;labelBackgroundColor=default;verticalAlign=top;aspect=fixed;imageAspect=0;image=data:image/png,iVBORw0KGgoAAAANSUhEUgAAAFIAAAB9CAYAAAAx1jR4AAAAAXNSR0IArs4c6QAAAARnQU1BAACxjwv8YQUAAAAJcEhZcwAADsMAAA7DAcdvqGQAACR+SURBVHhe7Z3Jj2THfec/EW/LrZbu6iYlURxaFDQeiQMZIMzDeEYzkDGGDzJgQzfBuowBXf0X2YBhz9k++jYSDOhAgYYNmzJpkdKIzaXZXV1LZmXm22KZQ0S8jHyVWZVV1aRGgL7NYNZbYvvGL34R8YvlibquLRsgpUQpRZIkaK27e23bApCmKUmSYK3FGAOAEAIAay3WGITAO4G1gHXPwzsAMpFgBdZYjLUIIZBSrr0DYKzGWBePTCRJKsGC9XGD8G4VvzXWR+mehdCauibPc9qmpapLhHB5k0IgELSqBSGw1pKkCYPBkLzIsdbStgprDFmWIX1+AcQ2IpumoSiKjsxAWJ7nKKWwPtMxrLUopToyXETWZ8xiLFhrMMa5mGRj/HvW0jQtUgqkTDDa0KoWpRVaa1rVoo1Ga0VTN7RtS9u2KKUpywqlWtpWsZwvuoJQWlE3rUsLsJgvEIA1FqVbmqZmuVxSVxVVWTGdTSmrirZt+fLLL/Otb32Lb//+t5lM9jBGUxQFqUzW8r6VSJdRR1TIOF7q5vN5lwGt9ZrkNE2DUqp7prWmbVuapqEsS5/RxiW0qambiqqsKcuKsiwpqwqtNNaAsQalNG3rwmu1oq5LjDVoY9FK0zYtTd1QNzWLxYK6rmnqhuWiBOuIA0CCE2HYm0z42te+xv7+PlorpPQCYaGqShaLJUoriqLg4uICZTR/+qff54/+6DtMJhOGgyGDwWA3iZRS0jQNaZqilMIYw+npKe+++y5PnjzhyZMnLJdLtNYopajrGqU0nzx+zLNnzzoVYIxFa40xBgsIYV2KESjVolSD1o6wpmlompZEpggpfEFKpExI0gQpJcZoZOrupUlKIhOkTBwZQpBI90wiXa2QEiHBGo3FotqWB0dHjMdjsixDCGiaGmMMdVWzmM9BCNIsZTAYkGYZP/7xj/n617/On/3Z/+Ib33iN/f099vcPKPKcNE0RQmwnEkApRZqmHYn/8A//wNtvv83JyQknJydYaymKgqZxVcwYy5PjY6bTGUniMtiJhBRkWY6QTmMlSYJMJEJYBBIhpKdXkKZZR4ITdkGSpshEonzVNtY4EoWrYkIIpyGDlBgXlovPotoGaw3aKL7w4hcYDQYorVGqxVqXv6ZukEIwnoxBCKqqQinFz95/j6P79/mTP/4T3njjDfb39zk8PGQ8HjMejymKYjuRQV9JKdFa89Zbb/HWW28xn885Pj7m9PSUqqo6/ZkXOadn55ycnJNmGXmeOSI7CPCZDqpASoEQYK1vjMKbQiCE9M/cPSvCC7b7J5AIWIsnkKkb5YgUAiEMrarQumU4GPDCg4cIL73aaE5PT5lOpwwHAwbFgCzPWJYli8WCZVlyfn6OEII/+eM/5nd/93c5ODhgOBwymUzY399nb2/PaY5NCCQCnJ2d8c4773ByckKW5eR5znA4JMtylNY+05InT4+pm8aTb1BKoZSr+koZrBUYC8YAIsFYiSVxBIsURIolQRuB0hZtwCIBiTH4MJ3T2qCVRinjdahzTatpmhZtLMY4GXdCoZ3eGxSuTAUsygVPnz5lNptRFAXFYMBoPGK5XHJ2dsZ8PscaQ5K4Qq2qas2VZUlZliyXy+1ESil9abqELBYLqqoiy1JGozFFMSQrCvJigEgSPn3yFK01eZ6TJAlpmiGEdJVVJAjhyDUGLIKmbanblrJuKOuG2l83SqG0QWlD02rqpqVuWlSrvX+LNWC1wGiw2mKUQQdytUYr41v/BqU1ZbVkWc6x1nB4eEgxHHCxmPP0+JiL+Zy8KBiORyDgo48/5vTsjLZtsb6nopSibZzO19rpcrqa4/jZSqQQomsktNYsl0tmsxllWZJnudMNeYFAIIXk4uICrbTzZwxt26CURhvjdJFWaN26Vlu1KH+/Nc41ut3o2s4pWqVote6cCzc45SVfubi63xatFULAwcE+xhqm03Nmsxlg2dvfI8sz5vM5JyenLBaLrssX+squQZNrvZPAS+BoK5H4xsYY03XEz87OODk5ASEYBSUrBU3bMJ8vSNIUolLTxhGpjUFrhVKNa6WVJ8dEJJhdnF5zuvPvMqSNQhuF0b1f35UrioLT0xNOTp5hMUwmY5JEMp/Pmc1mVFXVdfX63bqQr9BLCe8Ft5XIoCNDFQd8qZ3Q1DVFnjOeTEiTlIuLORZLmrhW2iiF0QbVtqi2cU61GK0x2hFgVYvVDVa3GN1gVIvVyt9fOaMatGowusVqjaoVbaVQtUI1mrqsaZsGrRR1WdFUrlNeVxXGaspyTtPWVFXDdDrl4mJG09QkUlJVFScnJ8xmM6dX/QguEGmMUxHBBYkPhFrrunZa6+1Ehq5PaHDyPEdKyWx2wdnZGVprhoMBeZ5zdnqKNcZVJ9XSNq46GaNd/81o99yTqLVCtzWmbbCqxbQtuq5QVUlTLqkW886V/ldVJbqpaasK3TS0dUlVLlBtjbAGoxVSWBIJRrdIaSmKjLxIGQxysiyjKkukkIzHE8qy5OT0lPl80ZFi/NAvy7Iu70EPEvVkrF0fvl6pI7fC2k5JZ7lrwZu27cbkJij88OtFX2nl9GZTo5uaIs0YphmjLGevKNgfjjja3+eLDx7wwv37nXvx/hEv3j/i6OCAe5MRDw/HfPHhPg/vTXjpxXsc7hU8PNpjVEgmoxyswpgGY1uWyxlPn37K06dPaJqa+/fvk2cZs9mM6XRK0zRdt9N1eC110/iBQYPpxvEh647ITdipH3l8fMxf/uVf8uabbzIejynLiocvvMBLL73EcrnknXfe8Z1XjUxSNzSLhmcWN9bW2vgEg2p9VffVJ1Qb43VegPC6qW0bjO8V5IOCtm24f+8e3/jGN7h3/z5KKWbzC/7lX/+V6XTqRy2C5XKJEJAXOfcODhEijKicmnGjosR1iRBkXs8T9Vym0ymtUvz+t7/N66+/zt7eHvv7+xwcHDCZTBiNRtuJjHF8fMzf/d3f8dZbb/H48WOWyyXFYMBkPKGuK54+fQpS0NTOahLDGOv1oiMTrGPHWrBBetf1jkMY568r/aIoSNMMrRUvv/wyX//615lMJiRJwvlsyk9+8hNmswvAGVXqunahCcFkMnHdFWNJEkkiJXiLj5TuWgrpu/srC9fZ+TlVVfIH//MP+OY3v8nBwQGHh4drRO5UtaWU7O87T8YYyrLk08ePef/993j06MOuSodSDf8cV8aZv6zBeoc1iI4cJ/VZlpH7sWu4vxpfOgRd1b8PYLzidw3kemFaC0ZbtA61QrjRFML1Sa1/x+D6sL5f2raKuqmRUq5Zp4KejLETkS6BrtTyPAefqTzPyTJn1FBKuZfFykkp1vphUgoSKZDCDeMCH0HRh2reR6zwN0H4cXYwYIS0hLCspRvpOLXnSUQiRAJ+rC9kgkxSkjQjSTNkkrAsS5TWpFmKiYgkmAd9HDsRGTKKl861ALw0pUlCKmWXRIErYmMU1mgnhVHXom0blHZ2zTgeIuJEZOQNCH04fAGvw8WZCInAFZSU7u9EZuTZgEExQsqMRGZImSLTjCQrSNKCJCsoBqOVKwYsl0vAkkhnU7A4+3RkoMPaHYm8DnHGI4F0GfOl57AqSfe7WQL72CaNl/z6y5AOrHWEijBMdc5JYIJg9TcyQcgEkrRzIoksS8Gs1w0LYzvtbbo/Htsyt70axoS691x1X3X4r8L2cDenZf2e8NMczgmZgJQ4G5ur1s4cF4uBm5qw3ut66i/j1kTiq+mmqnlJUi5l7PkghBmrmk0Q1oDQgAZWUxwdnIEp1Jf1QvedDDy923ArIp1ob058fC9IUUh0//qu2EWa3VODoEUI7Qld9WdXpFkQrkcRrp2uXydzE+ytRjYRNhF5G1xHxi64VVoE9Pu9XVW+YZLuRORd8Lyl87ZYNY/uijUZ3T1ttyIy7kvG6JMTqv8mdxPE/pIk6WyF4VnoDsXxh/eveoZXD1ImznpvWCnMbprCmd+sdfPuK7/rebgVkdy2Kt0Cn208sTT2se3+ZtyayLsilrKYrL6U97HJz21xdUw3w3MlMmTuJsQQkbPLu5sQ/PVVi7sZ6bznVAC4ir8W33Mlki0kdpH57kp/2MdzqMJC+HG9dwEh1GDReW7wfdGQx8s52hG3kZ4gEX0Tfl+SL0lVhNhP0zRrU6Pz+bxzdy2Ym+LWRHJDKTLGdJbnpmk2khjcNhL7yLKMoijI85yiKBiOhgyHzgmxWn12PUKjc4sOpMdORFpv68NbX4KZaluGlVKdlDR+UZXxs5Eh85v8xpIYq4I+ggE4pCNNUxCsZiz9OqPdEJHYkSmdu0FztBOR27BJIoUQGGO6FWjBxavT1i3hK/12nRGjf79/7W5GPbwNjzfDbnG7405ExoiJcfZGt1Jh9XxldgqdZCIplFKudbT7zzeS9lzQI09E7gZk3ohIKeVqGds1GQxVWXpDcJK4qAJpYT4k3BN+xBEba2MdGhDi68cfpjdAuOGz8HeFYNXCuvfCPE2wLXpzkA8rhCQQJAgyBBnglt2s4lzP942IDCTE15v+DsiyDKUUUkqMnzPO85yBnw8PYcXk9InbhH5cKzLCTyCZFZnuzfDfpV9Bx2fnIAFSR6IfNvYJDLgRkdehn0GllFur3bbdxJbWmvl8TlmWJEnCw4cP3epXL6V9HRkkYCUJzxv9qtx3u2FnIuNMrOs+93dfmoQQKKUoy5LRaATAdDplPp9T1zVVVWGt5fT0tOu+xB3pWyMkYXcOruFs9dDbzKP7K+xEZOjbGb8YyfpOdaiaTgeu737I/SqMNE1J09Sv6DUkScJwOOTg4IAXX3yR1C+tHo1GbtK+t7phVwi8YEUVMFxfjTUfPcclCV0t3V7HTkT2q9U2PdaveqFLE0YyeZ4zGo24d+8eBwcHnJ6eorWmLEsA8jxb8/+5wK3Pd25zti7laxN2IjKgX31jbLqv/ZIUEU105XnOZDJhb2+P+XzeNUb0dk98rrB+tnNDHiASziuwM5GBqNAlCS5+HkouSHCSJLRty3A47Kp0lmVcXFzw6NEj9vf3L4V3XemHcOMWf5NbwYmcFMJtSIoMu52L3o6h9fYRXJ+DnYi8nLh19J+FjnWQQCFE1/8cDocURcHR0ZHfUuKWDwb9mvjF/dc5NhRq/7l7KQjU5vRvp3EloJt9ruJnVyIDQmn27/X/DgRmWcb+/j4Ak8mk2wCkteb4+NgtxioK8BudLq+c+Bzg1zpaP5WwCS5fm58F7ERkX+L66EtIbBccDodYa8myjMFggLWWi4sLhJ8LGQwGEBkiQlwbpesadKnc3YuDxfted8J3zG20OmQt8IiWnYjcFYGI0LAkSYLwi/rr2u2uGo/H7O3tdVU8NmAEEoO/m5AY8td1gUIf+1oIT4MjL6yXlDJsqMKtpMNEAV4m9bkQGQiMSQwjlSCN1lrquqau6zVLUOga3RleOrrlJbc0Lbp9Qc659Zy74c5E9qt9XK1D9TXGkKYpWZZ1jUlokEKj9DzQZbtH4O50uPWc3TpOLyRsyGcfW3MQ66ggOfiGJEhbaJGFXxkbRi/h/cQP+UajUWfJDkaL0IqbyHYZ/IXF8MFCFOIKw8hQ7cPy5rIsqeu6e1bXDVmWUdc1WZ51lie3EcCpkuD6kNKvlRRu62D3jm+Mwtx2H1uJjBH0XfjVWlNVFfP5fG3Rety3wzcgwTqulKJpGuq69tuN3XLnfqJiYlq/lbmua+bzOdPp1O2rjtTDcOi2/A78Js2mbREST2LOYrGkrGqUdvvIE5lcktCrhG2Vvite4prF+AGffvopP/zhD/npT3/KBx98wMcff0xZll1VDZIghFirviGMOKy46odnQcrjGhDu9/VuKFBjDMPhkK985SuMx2MssFgs+Pef/TvT6ZS6rhFCMJtd0DRONxfFwO1dVJYkSUmkW50rQ1rCKpLArG749JOPODq6x3w+4/f+23/hd37ndzg8OODwwK8hH++5tenbiIzx+PFj/u3f/s1LkaGqStq27cxfRA2Oy2jiuw6XO/KBmCDFwU9omGLEhRRD+51lgcx79+5hrGG5XPLs2TMWiyXGuNrQtE7yP/zwET/84Y+YTi9oW+OWOHdE+jxcIrKNiLzg9/6rJ/LwgMODg5sTeXx8zOPHjzk8POxGIVrrTo8FvRhLFz1JtN5iFMiNiQxEhcKI/QYpDWGWpSvEoI+LouDevXvgJXI2m3XVXkiBUpo0y3jvvZ/xN3/zvzk+PsFat148kSlJFjV2QpDl2YpI1fLpJx9HRP5eRKTfHuKJ3ElHBpKCdIQGImyzDTOFyh/BEBqPYHesqqrTa2EiLLwfnNOnYUvyysV+2rbtiI8La5NTfmOmsaaTzrigLmHb/R2xE5FEneSQGXwmQoMSyA4ZjSUtvo51nPF9SLfbwHU5wv3wLPYTOxHZRVfhrH6zLGO5WEKwKvltIZ309SBwho2rIK5ocjaHugWBGB0ZcIN+C/1B41vomNgYxquBWAXQDcFW2OTPRKohOOurfehOBb/hb7enYd3i0/n3+3FsiE+4YyCyLCXL3DkZm8gTFr/ufJWHnYjsZ+rXDYGM63IhhKCqSqrSOROMKGFax/8d7sUh7kRkwCYJC/f7EvXrhk6C/cJTKd32ul1xYyL7iKvMpuefBTZVYSHcILuTvJ3ma8I7FmN0t+/RYpydsp+faItJP/Sdify8SNqEfkHFv126YuJ2JBEcH8JvnjJWr0/LrgUSX1wOfSciQ6lfV7U/D7J1dM5G3MIbu1o4FW8y+rywE5H96mt7XY3+s51I9bUjXiDS3b8Cm+IM12whL5KxSzfD0hUAjN249GeXgtmJyD6uJclj63uCKFvrG1uM35/YJ2lT4dhokBDQrzGbCPBl2DkJTh8aC9qsnL1qRmcdOxEZZ+S2bj1Ar8e7syG8gvebp/t+r3JrCKRFxt2AbYRYPyAg2vweXL9QrsJORG5DyMjGTHn0M969a/wzNBp31pnjdPfEryGSvEDmLgjpkWEE1TNM74pbERkTFxPY/zsejom1+WQQViKsxAqLFQYrDMIKpHG7VO2Gam23DEFdhCvutqwq2YgQrjvoyY/5vYvzcx3uROSmjIbWVPhxebjf+mMQ4zBci+sSG3eE3UktqzF07OKW+lJGYzIDodcg7pEYf6pqZwnvv3wFbkXkOlZNWiAsZFL01oGvrDotigaNQmiBrQWqNFRtSakWaOuO4OpXrbigwlh+I6G/AtyZSIvAhgxb606Zsm47pABapamNpElGVNkhF+kBs/yAi2REKTIUEiElqXSbz61czckEtxZfT0KvQ0hHXCRxzV8LIX7J/32VlozTcHcihcAgnX5DkOUpaZoghSDLUvJiQE3O44Xg/TPB2yeWfz2DD8qMp7WgxCJTQSos1iYoJf15krsRdS2iIAIp1rrtS676ugON+9O4ccxd3zK61y/MOxMZIrDCIoQh86cz29GY2egh79sD/ulC8k/nDf98NuOX0xkfPjvjnacL3p4l/LTZ52MOUfkhclRgU3XlepzboC+RMdwyadcnv0EjfQl3JhLrRgQWizUaoRXZsEANxrx3YfiXE8XP54bzZEB2dMTBC0fcOzok3b/PqRnwzhR+NoWp2IPREJNorFgt7VuvymsxP0dsUgA3w52JtBjAkGgQSORkgt17wCel5OfPzjmfnvMfhwn//X7O/5jUvDGueP2g5VsvwDcPFOP2jA+enPDPs4ylPOBgch+r1wlctdKbt5UIERlgfQ1RbUvmjb3hnWCQvowVkcYPcNzI3R1TI/wybta6Xush3JlIf7yoy7RIyccHzOyA908blmXFKy8c8NVxwn+QJS82z7jfnnKozrnfnPDVCfynozGDIuW903M+uagx2QSRuiUum1yMfqtOLFPWXYXrTe86xNIo/EFKoY+62vJgcUffrEJcx52JlBiE1Wgh0EmOSCd8PDN8NBc8KFK+VjQcyQqpF6hUgdBIa2iqkqFu+K1U8vL9Ap3OeO/pU2ZiRDZ0py4781+wIKzQJxTPW9dY+F9HQq/j3kc0bSyEIE3dsdzd1IWP6sowbkvkmpT4f8Zq0mJAqROenEwxCL50OGak5khqtGkBfzixlWQ2xVQNabLkpf2Ul3LJ07MpxyLHFmNEkroz1db2vmxYbbuBVC6l0UlUuL+2zNnr+ODauqGtW9rKzeE7I69HJ6SXSb0TkfiDYLQAaw3FYMhFCxfLijwV7CWWsVBoWkSaIEyKNSnWpiQ6IwF0umDfLPiK1tSN5tGyQaUDkI5IK2xnsY7j3YlMr8FdUXvhig/Hikn1LhWJdxlYMPjFVF4qndkNz+oKtyIywJW2xNoEAygpmCNJpOUg1aQ2WrpnrBcC1xqo1KCtIa9SZKXIpWGcD1mczhGdpLsCctMA60PGPixBl0W/GyTnEqJdDRvhH3wmVRtPooOrrlaAAuatxhjFUCikVV1C3Cou3+oKQYs77VQ2gsxIxkXCMC2oL6qg2kCspm9DgVyFTtCIybwZ1iU9KrgNhRfjVkQGXaWUQjWtqxJZynwxpy0rVKtolBtzh7ljfCIDMe5sGIsSFplIrHKSp637kEVoZ6xl7fydOO6+UeP5YK04usK4LvRbEbmeeNcRV1qj6hpZVWAFSyNprVveEhsWXOFaRNhYLjSN1SyNQWFAQlktu/WS1vi6d0larsva7bAKPxSSnw+6Jr47EymEwVpFoxRtWZItF1grmduc2gpnDtOuMx3SIhAIK5EWJA0VijMsjTAIaSjLBU1Tdx+3iBua507kqqu4uuGdU4uiK/yrcCsiYxicUTbRllQbUl2RWUtbW06WhqlJMaTY1iKVRaCxskULf6A7BTMz4tNmRKYEe/WSdn6xtsrBWdNXcYZMuQrhMrqqkU6C3Tu+xljr3wlN2DrifqSUbmOTs0mvNzA2+A8CEfVR70yka0AsiRUUWHJRU2Cg1jyeVsySCa3IwSYIbTFGoW2LlRqTptRiwkkz4EQNGVnJ/uICmgohQIruLEJHQiSJNhCGIzO8I9zDjsyVJHkKL/PYk/LQvQlwFyE+F6ft+rV3IjKO2FqBNQIjwAiDEA1Dfc6keUabj/jpFD5SE2bZhDoVKJtidEGWj1lS8O484ZfzipaatDljoqck1n1WKrS8QaLW470sW9d1UTbBGjfNEM5Ljx1R47YqkM24FZFrsG647Y65NIBiYOZM2mfUF1Nqm/P+ecPPZpqPVM5Jcsh5dsTbT5e8fXzB/72oKeuKdHmCuDjmIAXpz+MNUuakYiWJa1K2IYOb7m2DxfgPrQUC3Yn+xjhz3q5Fc2ci3VDYH08sBfkg52iS8EKyYH/6BPPkMedK8PNmyJvTET/81PJ/PtX8iz7kl4yY2wrOPuLBJ+/x5TwjT3JGgxFGG4wy/njrTRK5OrjYWovwp1J36eo2cbp7bkCwbkHCNSnhhFjcq77+4s5Pt9b5TXuHlvRxZyKt9QM4C9ZKkDmjQcHRXspLezAun8Cn78PJJ8iypFAKsZyTLC5IL54hzx4xqU54ZT/jwf0ByVC6k0V9a+mwkou+tFm7xaixs1SuiMMfAh/0301wZyJNGAt7IrXNkUnCaJjy8oOCbzyQ/Gd5zpcvPmJy/IjBk1+wf/KIvU/+nRfPP+RrYsZXDxIe3BuQjS0MdfRZKsfHuiSG6hyca+xC1V8jwPr/7crpJnTBXR3IrYhcy5D/FVYjjULqGmEglQOKrODo3iEvffkFXvnSAa8+zHj1KOPVBwVf/cI+r37xAV/54pf4wgsvUIzHJLIgsfnlbkd0moRzvvB6mQvS2k/flSSsGWvXXVAVbsay73EdtyIywFr//QWnSBBGI61GWoEkQyJJE8FolHN0MODL93NePhrw0r0BX7w/4mhvwKQoyNMMkgRhE9BuIm0Vhxunx7uuLNZ/tXOVu5Wk9iTYj4y6xmsjRNCW63el6359ZiObzbhc8qFURbSXJt4aFzcOHSyXJHKFYBGKbgnrqvc2L3fG1QQGbMjJ9VgrcRu+03r1UC6uMuF6G9wHJnw8W6qquw5Dz/D35tUfIQ0reL3pSyWE46Q8fs2nfYdSuhWRAf1E9hN/e7eyX1rrMq21+0xf95G0sDbHejm1dNITwtmGtbjWHqw/c5NlrjZdVfDclsg4sk3Xd0UnjSH8LdWre6d73xPfe35VuuJ3tsWzC25F5FWls0vir8dmv2ux2kt3Omz2/dliK5FrJdVzRDrvKtje6rHYNhnrsvXn7kNr1mis9s5osM5Q4CedvRTSfS7VegJDg9+F7QcM3fKUK1gW0fEP1ocRvuPY56AfzlYinwdCom6OjpaOsdBBufQKjtC+GPZvhb9vWn1jdeGLov8K3JbIWBL7ZMWl9quFo3KV8dAgxc+vwA3TfysiL4v5Z+s2xdlHR9sG/7d215Ed4c5E9q+fh9sW1yZd2/mx1k1pGDfqiaZ6ujCt/5/tdKq78N79M3e98rAbbkVkjH7Gf6VwirT7c0Vy9Dc4CkMhgGc2uvbPw7ub3TpuRWRo3f5/ItEREt3oWu/4ha09pi3okdn5vUzmViL7Q7q4KgVsqmKfpQvpshs23OOzFtITYK1FaYWx7hNV4V7s1gwixvgDQcNUh3JfYvYn923DViI/D/QztMldhcvP+9crkbS+il/GxpveW2zrdM6daHoZtyTyRvXjc0Xoa24bLKzuB3KuQ0RiV8V7C8pvT+Ru6EtX390Gsb9L/VlLN3rpqngvw84YEkmZjRzOAhQc3Zql1SRYF2cv+Z8pkexA5ia3CeF+ICjW4c5fMOMBrO+/cTw5Uh1BsV73L/hVCKvvgQfrktPH4TD3bZagz5zI543rCL8ZgmRuhrUWmbhv0Ybl0KKbnVx/99eOyIBtRAou8yOiVbarj7P47x6u6bvg0TtrSfyWvuB/W6w7ESni3QNCwBVDsU3+trm4esbuVohmZUVwXbvgPkCuW7dcMJGCNBEkiVvrk0h3T0rZHWrsnES3rjuUJilCJFiDO6qm+0KzdOuF+unZBOPP8tnk+uT9qrGxGHwh1/6j5eH0Z1fQq8UB7jPWsnPhmEVr7NoHLxyR6wKxE5FXSdatJeiW2Cb918EY0xEZ9J305Ei5IjeR7nvgiXTbAAeDAUVR0LbtpROxVoUhtxMZlhvjE9G2bXdis/VHILhDNd35jUVRkGVZ94WQcPBmOFQzbCbvStAnhqigQrybRid2g9FCRCdRBZiwIji6tr6VN8awXCwoy5KqKim7w5IqmqambWqatqZuKuqmoqwqsixjOBz6ltsd6xiWr6wkVGw/ra9t3VbfJEn4+OOP+dGPfsQHH3yAMYbT09PujLQsy5DRuY7h0PaQgLBfJT72S0rJaDTqCEzTlKIoOsLD/ZBIemQ2/qtNWmuOjo44OjoiSRLqumY6nbJYLBD+lNXZbMZyueTdd9/lb//2b5lOpy6tQiKT1H/JfpWOEF/AcDjk2bNnZFnGd77zHd544w329vbY29tjf3+fyWTi8rKNSOOXtRljqKqKv/iLv+Cv//qvOT8/x/p92SHDYc6aKMNE32oI5IjowDit9aWqEqC17o7WDsfKhpNLQ4bDsbAPHjxgNBphjOHi4oLT01POz8+Zz+e0/jRUrTXPnj3jF7/4RUeWlNJV32RVQ0JhB1hrmUwmPH78mNFoxHe/+92OyPF43BE5GAy2ExmqQ9M0JEnCm2++yZ//+Z/z6NEj7t+/350IIHyVsdHXkYJkpf5syfA8rp5F+B7rWsfZvRPUR/95qAEh/FCN3ZdHnFEhbLwPZ+7G6qRt247gQF54FhdQQOJPZg3x/OAHP+CNN95gMpmQ5zl7e+7syKIoriYy6AXhNzX+/d//PX/1V3/FdDrtDrwMCcv8EdnBX9u2HVmhUEK1CdIekx9LZXgvlubgJ/gPxOEzHAhP/cmoUkra3qmrIRztLUfKn08Zhx3nORTYxcUFr7zyCt///vd5/fXXu5oymUwYj8e7ExkSWpYl//iP/8i7777LJ598wmKx6I5oXSwWWN/FCEQSHeOqfePV+kM4Q8bjTOFJEpG9U0cnToV74Tq8F+IJ0qWUO5hY+e/kBGkz/hs8QdKCv/A3/lMHgWzh9exiseAP//AP+d73vsfDhw8ZjUYMh0PG43EnnTsR6Xpn7nq5XPLzn/+cDz/8sDvJND7R1Po9MKGkYxLi60BmIKpPaCwxMfHhb+VtkcE1/qOVJqrWZVkio0M/QyMVTuQPJPYLpI2O87bW8tprr/G9732P1157rdPdRVEwGo0Yj8dXE0mkJ+MSs9ZyfHzMo0ePODs7o6qqNVLCO9Y3SLHfUGXxuiy8G35D5oi6LQHhOri4EILf+Fnrz9nFF0oo2EB6HH5Ia0hT3Ag+fPiQ3/7t3+bVV1/tqnH4PEJoCKWUVxO5DdPplKdPn3J6etp93CdIY5z5mMj4Pj5zMQIB4Zce8eFeTFa47v/244oLoY+gD2MX+sJZljEej8myrCNtMBh0XbxwML2UEvHKK69cDv03uDG2jmx+g5vhN0Q+J/w/qlsVO9MSI6EAAAAASUVORK5CYII=;" vertex="1" parent="1">
          <mxGeometry x="240" y="310" width="78.72" height="120" as="geometry" />
        </mxCell>
        <mxCell id="5Ddv7FsW2zNBN4ctXqHw-10" value="Ring Security Camera" style="image;points=[];aspect=fixed;html=1;align=center;shadow=0;dashed=0;image=img/lib/allied_telesis/security/Surveillance_Camera_Ceiling.svg;" vertex="1" parent="1">
          <mxGeometry x="630" y="130" width="37.2" height="35.4" as="geometry" />
        </mxCell>
        <mxCell id="5Ddv7FsW2zNBN4ctXqHw-11" value="Printer" style="shape=image;verticalLabelPosition=bottom;labelBackgroundColor=default;verticalAlign=top;aspect=fixed;imageAspect=0;image=data:image/png,iVBORw0KGgoAAAANSUhEUgAAAHYAAABkCAYAAABTucSBAAAAAXNSR0IArs4c6QAAAARnQU1BAACxjwv8YQUAAAAJcEhZcwAADsMAAA7DAcdvqGQAACXYSURBVHhe7X1rrCTHdd53qrp75s7c3bvcl5RdvrRc8m7E1wJREEsCDCuGooetQDIiSImBOAmgfzIskwQiy7JDRTGMIP+UQBQtB0KAvGHIfxw4iCwHgviDlkVBiSTCJqMnKVHiavc+5870o6ry45xTXd0zc+/d5XJJEfsNzr3T3VXVVeecOnXqOVSWZcBNvOZg+jdu4rWBm4K9IaCEbgxuCvaaEQDyTNivNUuFeuOEe1Owr1HcFOwrgpe/5tJyr/h6vzz0TFaa9pIsXDWW5bn/7uuBAJCkGUjqyKJ399Evt98n38twcHluYI1NM6/fr6YwB2G/9JbdX4T90ukhkAj1KuKgH+/lwQ0UrOLlLdCNwzUI9AaCZrMyhBBARDDGQL8jSIUPC6p8AIKYAgL1yrZfQak1IUFTaK/nsDApSuIyFuZxDm0Y7+XNC+PxS4mAELyE0XCSIX1/wocQepkNnL6S3Oo+R0DwPt7yvvWwNV1rM1hrUeQF8iKHNRYBHkSSyBLQ3mQWQgjI8gxN3eDy5cvY2NzAZHeCxjXwzsNLAVUsmlkVKvFbQCBwqEUgIFhOgRyCDzHz82BmErUGxcg7AGIdIGFwAHxQ5nC8NG8K1zgJEeBcQBDhRqQ6B44f4JnxpMKhjrBCYO33ISBmQRBCgHMOzjl0X8V5BIDgAecAwIPIi8Jx2+29BwKQ5wWyLMdoPMKxtWM4d+4czpx5PYw1nbT6oMlkGqy18N7jiSeewF//1V9jb7qHpmkQfIDzbo5R1BNeKyBaVs0SBwMx8wSuGgSKysFVhb8a06ZFZERL9brLZI7kuRYEZkwqvLRGcRxVSL7P6YFLo1ZLstPPG9dmUcy0RiYWIATmnXesEETUqWX8PiZ2oLjysFIFyZa8NzDvrbU4f9d5vOMdfw8nTh7fX7BV2YSAgO2tbXz6058GGUJd17A2gyHizHkVAguVSGoqiLU1sHZJkkuES0AwIkiwYEkEBkKW592wUvh4R7+HgAB+nwoxCnfBYIEKLHgVHAsGUvvkDqgXkwXBSidBOoJLhcT31WwzVLCsQCZJX8KIBQBsFKz3kgYFeOfgvIMhCyID5z2stcisxXv+/i/jwQcf2F+wZVkH5xye+upT+LMv/ln7JG0zVBgLwFoWRdERijEmmqO9vSmcC5y5LANCYBMaCGVZoSiKbi1IhOadR5ZnzKyGLYgxBO89fKwtLNS0VocQUBQ5ptMSCATnPYwxkcqyjDU/iSX/Wahc6zzyPO80HalgAaBp6uQZZyIED+ccsjzH8VuOY7gyRFVWyPMCo9EKmsbBOWkvo/5wGQInIE0bIXgVPHDhwt34pV9+N8bjFRhjOhVAQXXlQlmW+NznPoeNjY34IG0rO6YyQb9GMYPamlGWJb7+9a9jc3MDWZYjzwcYDAYoigLWcL+vcQ7WWCDRaAKkjxjgPZvVLLMoywp5PkBdNyiKDK5xIDXXIcB7h8FwEBWiFZ4BAuCcB4gQgochg1k5gzH9joHWgrbMQUyzlpHLyZaqVYouf7x3ICJYa5DnOU6dOgVrLSaTPZRlhfX1dQwGA3gvbX/UEUkb3H4HqPnn9NnBcvjAB96PO99wJ4wh5B1rx6DptAxXLl/BZ//ws1yTFL1+1kGCTe7GTP70pz/FE088gclkghCALMukrWQmGWOwurqK3Z1dsHPIZpYZ1ponyLsGgyGq0oHIwHvXCkXbPDFlNjNomgYAUBQF6qrG+voFVFWD5557Ds47TKd7GI/G2J3sdoSr7VsIAWQIec5NUtM0bB3EQgnXY53l9pz5URQFyrJEVZUYDNibPbZ2DIPBAOPxKkIATp8+jbvuuqsjWO/ZRwB84sewHFIlAzzuvucuvO997wURlgh2rwpf/PMv4mtPfS0KlrWlK9j9oFrLGo3YbXruuR/gy1/+Mi799BL2JlMAhKZ2AAF5loMMYTgcYnNzQ+Kx9g0GOc6ePYOmaaKp8cFjbW0Nl3+6iZWVESa7uwgAtra2UJUlnDDo1KmTWDt2DHVVYXt7G/feey+eeeYZfOQjD2F7axv/6wtfwMaVy9je2cYtt9yCne0dNK7B3t4eptNpVKrhcIjV1TFGoxGMIZRVBccuLJdV/IumabgH0TjUTQ0gYGW4grIqMZtOYa1FXuQYDoYIIeDo0TXcdtvtOH36NB588EERijparXcfLYFWnsQwEAFFkeP97/8HOHv2DKxli9cGAuxH//nHHv3Sl76EvT3OBKsrp9Cah8Vgs5Ret2bLOYcf/vCH+Na3vonJ7i689zDGIstzZFmGLMtgrYFzNfI8Q5ZZ0b4MVVUiLzKUsxJlVWI6naIqSxR5ho2NTThXYzKZcFdC2k2N6720hyFge3sbZ86cwfe+9z3s7uziueeewwsv/AjT2RTT6R6yzKKqK0wmk2g68zwHkUGAR11XyLMc49URtrY2MdndQ1mWQhWmezN4z90aABiNVjAoCuR5jrzIURQFhsMhVoYrcM5hOp1iNpvh8uXLOHnyJI4ePYKjR49ymyp9WFIvXJxTI9aNnxGM4WvXOGxubOCBBx6QGt3KAQDom9/4q/An/+NPYmAWEJsV7chfDYK0bU3T4Gtfewp//r+/iMnuBNZmAAjj8SqKomBPm9jUEQXs7OyiLEuObwllOYvmiIhgLDs8VVXLfUJRFFhdPcI1qiyR5zl2oxIZjEYjTKdTlGUJYyystXCOTfjKyhA7OzsYj0c4duwYnHNomloUlbC7u41ZOcNgMIC1FtO9vc5AnbUZVlZWcOTIEUynU6ysrEht4vJr5SFD8M5jd7KL7a1tVn40uPjgm3DffffhwoUL4mQ1SX+8rXwq5OC5iTBkYK2FDx6EgA/+ww/i9ttvn3Pm6L//t8+H73znO5jOphgUA06zJ1ithYeBhq3rGt/97ndY64scBG5PZzP2RIfDFWRZDmM481mWSTfLwvsG3nuUVYlBUYCIFSUELpx3XtpqZjQ7Vxmqir3rS5cu4fnnn4/fx+MxqqpCCAFFUYAIOLq2hr3JBMeOHcOFC+uoqgpN06BpHLIsQ1Hk8N6DiNhBk24LEmUDgOFwCOccRqMRGsem2IsHa8X7ns5myLIMhlgxjTHY2dnB1tYWTpw4ieHKAARuwlg5Wl7rdyNlJekP13WNgIDzd53DP/rVX52vsf/+D/9DePHFF6M5CQgwZGCMhXNd54WIIoNInB+9HwJ3ZXSwwzmHyWQXW1ubqOsaR44cQZYVmEwmaJoGBOp0H9iVV0Xi2sO1nHlJYG+WvVrxUnszKmqarbVRWTRthg5McLTYjkVHiBW6DdsqNteYtiaq0BVBvHJ2+uLd2AQZy3E1X3lRYGU4xHi8GvPTESgXeu5eex0ABAyGA7z3ve/FXefOsRw07L/7t58Jly5dEokTikGBoiiQ2RzOeVRVFZmuAoQIWp0kfVmWZTDGYHt7G0QE7x28d8hyNsOu8exdSvfFSDeH47dMDuKUaHrsTfO7VViqUGoe+3lL8xViF0WEKV0pxaJeunY3IHGcjGSpH9G+i30L7z07cL3hTRYsl4PDc97SChMx95WFy9/adrcNFGCIsH5hHe95z3uQZ+xbgAD75je/9VFjWwHNZjMYMX2z2SxmoixLrmlEcK5BVdWYzWbx3mQywdbWFpxrkhyyY9G4Jt7J8yLWqJaALLfRFGU2465GlrNVEIchphqF1F6nyqddHTWJfdJBEB+FxYMlnTDSf47keBSpfTcLhi9TJWnNpcrMGC5bq4wStmf1OD5/OIEYFEZG6FKe6eOqqnD61GnccsstCOJk2Z//+V941BgreSPccstxnDx5ClmWY2dnB95zLdvY2MDeHo8hb2/vYG9vD7PZDLPZDFXFnuV0OpXuAQ9QM6Pb2hVioYURPVMjbJEwWmBuS9s2tQ3T/uf2KaXIqE76aU1vmQS0PYEu6T0AZGCIYK20uVIj2zTAtVXLazjv8T0mkUTCkxgWreklkmuOnYRN8pP8r6oaWZ7jjttvR2YzgABjyMaBanZmLDY3t1CWJYqiAETztf3UGqpDg9baqL3cjcklE8Jka5BZC2MIVhhC4rYzowysNdKuc1hrOZ0sy2EtD2owg7jtb2lekB2Tq0WX/Cp102Di6bF9SGud5Fvfq/lnsshsBpsxbyLJ1FuHsqQWq/CST5t5EW5H2ZKH4KHVH/zgB7h8+XIciaNPPPr7OpXAfTnRniAe5FQ62WVZwnuP8XgMKx1iI0N26hAVRcFuv4AH61sGA21GFTz9BCCIRhJ1x6kTIanwVIPTe2m4kLSBKdJ4B6GfBptkNvFsjTiryrsAHtOGFIHfw2PNBFaELoJMoMznMwULPF7N5V/fG+Dxd9/2NrzlrW9hhfnkJ/51aMeFA6yVkR7pQjjnUNfcnnrpH/rEIyTi/mSQ+UcVOj/s6hgrjZRc70UzpoMdASFwAbwMerPZ45rCbQgPSEgK/Fz4w8HbsVa9dxADWyizJV35z+1r1+slYp9AXsr5lRgqWO8dQBS7K320yqxxJJ/RJEsu+gqpvEJAXdcgItx226143/veh+PHj4P+1Sf/TYh1SAbIY+KaxhLzlgp37sWCfrj0f4suI51zcbBhc3ML0ykP1htjUFUVTp08iSzL0Dgnwu5CyxK/p2VIrtNapHG2NjdxZWMDRV5gZWWI1dVVGGOwsrLSaVtbVojzpZPkml4q2IU1lpHyom8l+DvfS/WyDcfkA1e0uqrxgQ9+AOvr6zD6nCd9+yyaF+a1QDPSepncDVJqGrYKVVXH7lVZlgCAyWSCzc1N7O7uYjadYXd3FwAwGo9xZPUIxuNVjMfjHq1iPOLvo4TG41UcWWU6eoSH85SOyP+qrnm0qiphrEUxGKAYDEAyTMrE5Wi/K49YmC3tjy5PuvO5qUAXiKWL5PlTX32KTb+XjPnOioPDZu4wYRhaCB6669J8odpBhbNnz+L8+fO48847cettt+LkiZMcx7EHqkrTIf0EMcdReSUP3sM59vaVXONi3/nWW2/F+bvO4/Tp0xiNRtFJVOtD0hflRQitUPplYCznT5C5ZlWYVMj7r8uah7bEf/GVv8DedA/0u7/z+yEEoK6qdp1sgs5IShydQZJhYV6a/yRcIFY51ryk9ifB41VMmtvTRkbDXMMzQgTuoxKRDHpwmsQPl5p6fW+fSWk4TWMymQDi4RO4K8Lv6IJVp+VNTJrkInkVP9MythyMvJP0+PE8f/leqzhdBWBrp2EmkwmvhPnYb/1e8M5hNptia3tTEmuRMiP0MgzNUO8ehGlBR3ikD6YWIcaJWi4zSaIQsQBSK1O/UAUaEdi7bK9bJiERHkl3IpVQR9DC8KqsOvHbx2INtAykI1iMzoRJSO1nd5asr1xIlCpeE/EASZB5WVlGpM8g6agFNMbAWEJmLeq6xmOPPQZ65KFHQwges9kUu5Md5kyCOcH20WvY5SaXjVivmWmtEEnLET1BLrym3/+/SCgKZXj/nuLwgp1X0k7dSkw9AF652HveXjBfGAsEO8cvRuO4OxUtUFJrdRhU0wrSCwkyRp9lFsayA/XYY4/BqD3nBWvtR+TRKl+aGb3Wijf3kXsqIKAzcR8C4D1ruXPc3nXbKR6MaPMigvcLKEDSlQEMMvMDC2RBvDaiUyaCackYXrMry0m9eLrOeThp09N37U9puEXoh2fSPBsZRGnbdAMiC6JkQEWmIdXbVoUhEwdPdPTG8uyFVCcfArzj9bL9NcAqtCiIRNCp/efxViERmBKp8GTosM1HO3TIhZE8LWBEJNkyEXyrMF3Bg5d59igVssZl5WBlUCLDTG1nk3QQ5bCUYL94QYY2lTrPJO5c3rXysCx0RLDTuYpZWJT+KwDVVkM8NDk3LGdVc3tDezpxYChRCnBptG1MaQlU4bR23BgsEPhVQM14t9dM/Cf6gImyzCF5Z0cJXjLaggTIFFQmZseygFPi+z0yUtPTJGN+09xKjhfwjogVgx0Tfn9qta4ZC96l6Oesz9duY7ccBAI9/Jv/IvgQMCtnmM32pP/I849N3cBmGc+p6piuTGgvQ9o96r8+dTB0UF3vq+MAAJnlyYjpdIrnn3se09kUwXtuB3s1p9McSOGj/UWvwkZwHPZkW+1N/QJovpoG1lqcO3cOo9EI0K5bsusAMrGRJN8yP3T5xcnPZQhA22sAOEibZkBT17DGwGa8vAdxQbqslbY8oUJEePwzj4tg4WUKbir7dPjV+l0XnSk44QUZSGz+InS6JQlIaghEGbIsh3MOk90JnnzySWxvb2M4HGI0HiNPl8gK81PPV7tWPPDC+25SxncEAEibJ8VZ4OGrU3f//fdjPB63D3SLisRt6pY/HVD8A6hgF7NhTqmC9CYoAEWRoWkaGDKsUDKxr4K1loVLRHj88cdBDz/0O1xjZzOUsowzBM6L9x6bm5tcs0JSS9sK0s33Aq1Pkd5nBrcOPd/kf67hcdztnR189S//ElVV4dixYzz8t7bWicMpcoZZZm2afC2OmzKJQruPJ8lmKlgVmZFhxBACzpw50w0H9rj0ulMrk7+4mhqr/Em6OsyngEFRYDwetWF6NVYFa8jgDz77B6BHHvrd4IPHrJxhOpvBOV20DDz/wx/CGINhUWiO4os14z3R7Gv/U8Ea8YbB+e7AOY8syzGdTvHjH/8YdV1jZbSCleEKBgNecKcIMV0ZgZJrIw4UwEIlQ1EgIYinn9YQsLamK+81f4NigOHKSmfLI486tcJLy9HhQWqWoStnDhCswHl264six/e/9z3cde5cXD8NAN7zAj9K5rWttfjM458BPfLwo8GHhgW7N+PxT1m8/eyzz2J9fZ2H8Trv7HqTc+ZtCfoZV3B3ConyUCx8kBEWpPzrCKSNtygfRNyuGJ1ik/hKEdEK8btJv4IVAjKFxkGlHRcehCBKsaB8IVEmvtZMzyONT8kSn/F4hG/83/+De+65J94DAC9LVtMam2c5D1DEUHOYZ9IrgZAIAkk/rV2d0LvukdUBfF03Rdx94bgtsefNXaV2kTaPE4fAbZr3vFd4mWCuJ3yyEtQ5z8qmo2cHYa67k6ATfVFBouZp7ToEaZw+LQERwRqDLM94dX3Oy276kDrRv82JBx6w8F5WGnjeodfxQCUoZJNYnG0R73M+nELLNZ+nLnrPF7CmH6Q1sTbuUoCUNYYBehHlewgwc+wQjxi996XmKx3iIpi5EZ1lFOMQbyWRSgjISBSSxWoplmmpFj6zGaqqjgPiXtZocdKEpnEgGJ5XlcXfOlzYNLz4XN+rgxHab+YktLZrTRadlNEtLUtXSkJk2mchxlxCLdRq8EC/LFxXzz6RUGAfLskLAITlNRZo37WYrS8RYupS4gx3GXgQdBpPjzLgIUnCTLaI8KJzNqlNo1sbeUtmCLxLvKrquFc1BUleFqN/f748nTBRieVijvbHvFDT7+0qkqJgq7a/YF9mLGJav3YsChNBXGsvXryIs2fP4tSpUyjLEmtrazjzN85gvDrGfffei3NveAPWL6xjfX0dQ/Gs777nboxkYd6Ro0dip/+6Q+S2yLG6WpD2ImTsYBF/BsMhyBDsW9/6tkcB3ileN01UHkOEK1eu4OTJk9yQ95ge0XvJYQlJeul3ve6AZMx3wbOqqvDud78bWZ5hfX0dZ289i4sPXsSxY8dwx+134E1vehOstTh96jTuPn83jhw5gnvfeC9GKyPcf999uO3221GVJTY2NuJImGJxu32V6Jc1FqXHkxh8nldEwMaVKzhx4gR8spAwNo3Q4U/C0SOrePvb3w4TTxTrdYo1E+rmpy/qon99SCTp9AvSByWETnieDQKAP/3T/4mtrS383N/5OYQQ8I1vfAMbGxu444478JWvfAU7Ozt4+umnceL4CfzNN74R1lrceeeduOP22/Hd734XxhiuXGlX6HrItV++9m6Xligug6K53o9HAPgsj/284lcSBwlaQeA28gtf+AJ+66MfxR133IEnn3wSzz77LN71rnfh/gcewKc+9Sl86EMfwt13342NzQ18//vfxws/+hHuOn8eTz/9NDY2N+PCOd3B9mpECFzx4mcRfyhgOBiwn/HII58MITQoy6kcAOIQAFhj8Mwzz/AAhWtN9ByiFup1erG/X3DYdicNl373IcC5BlmW49KLL4KIMBgMkOU5H48gm6BnJW/HzPIcwfO4eAgBeZ7DeYcTx0/EhWyxth6AOEih1504XSZ089+O7PWx9LUB+H/PPoMLMlgEScc52QiGAGsJxhIurN+D3/7tj8Gkk9kdM0SExjXchRCTR2ouUisSe5H8aSfPeQXEfliodQvQr8FK1hgUeQFDhNe97nU4ffo01tbWMFpZwYkTx3HixAkcPXoUp06dwtGjRzFaWcF4PMaJEydw8uRJrK2t4fgtxxFk4EMF0H9Pmr/WTAfRWqbImgVF6aazHyXpgfsxvGNDzuXofFKkys67AnqTli2ccyhy2bsjiaaZb6ljIDpp7AtCMtHdp5cIWXlv4ooMzud1R18uSgeWoR8hzRvzIMhCcJ5hC3LCjHTHFibf8i+EAOk9d80KAHjHO7vb7fNBBr518PulCiKJP7ei4VrTfO2AjQKPkIUQMBwOeSd/b8N4F+19E8AD1P3AQSaZ8yxnIxEknDbial56DfkiHVwEStY5EfH+3H5+++ZwGc2ht99VmXQQ+jzYDyHyZL5NpgW7/9qHy3kUdL+uZ0YTuBuTi89App1GXAY9GogefvhfhhAazMopponzhBDwwgsvoCgKvP71r4OLO80kA/KdQDIUqOiZlWV56NVMPdgEQDLEN49FhUrvad5Tpi8TQIqAtnYsCqf32sUCQayXPo9fgQD4IHxKZqc43HzaCuYxP2e+shJcunQJp8QnqGs+wwKy7pqdJy/OE3D//ffh4YcfSgQ7m2I6bQWbyzEB3/72t7Gzu40sa4WXThwTeNxYsV/GUxjbdTTSaCGkN7q6vSj9RfcUWnP6/5dhWbi+YK0sRek/B8D8UFPa2/zVDdffrNVdVhS8h7EGq+MxHykk22FIdh0uE+wjjzwMevjhT4QQeCdAFGwshJeDtrovTTWQYGBMu1ylq53ze3JaJLMNEiR0/3Dc6ElKmP6sTBu6qx2i7SCeT+3oSQp5H/+TGjv3XEPI3KzcSZNKFSFwUlGwaYohtFaMrUQyPk18F5Kec543iBuDalbG9V5BjlLyng/SROzutILl4ZYlHV5DfMhlUzdwjY8Up8G8LHpLNjc1zkXiSfuEkh12OrPSNB6NfHeNbJaScyucd3z+UUJNU3fe5ZJ1zPyMyTU1nGvi/8hkacOUfOB4Gs57hyDEjONNXLxWuV3UHlyAb3wkV7tITS0bvXSjlUvIOznuqOH3gLsnAXzWk04ZusaBRIhOjihSgfPKkC6CznRlvNDc8BRVb/VfPx51+64pg7rq3QnGlShhYqo8lCwQ75CVdbxCRk6mUeqkgVg1gBA6abYT68TOmXQD+tRtHFvGkZEuk8wc6TRapwIchvpIXycrO5TSHQzG6uL9trJ1389yic8MH9Vk9CSef/ZPPxIGwxxlVfKZhGqKqV0iGhCSbfpA07QzIbw1ojXFIWGU1k5Fqjxel8OAC5u22+l6oiBOSETiqLFc2mepImv/jwN298+kCCHAh8QxTAP24ikTITVpWaJelGgR+mul0nDUaYu7B2mT5M2QiV1Q7zwaV2My2UXTVPC+wbt/6V34+Mc/DvqVX/m1MJ3uoXE1tre20TjXYyQBwSMvEuF12rlYP/mqo6WhLUSfMQGdeCk6Z1ckc60QhdB4seZIrPk1zfpumexfiG48MnxoND9B96z/jtDjn3kk+VULoJg7MaDPyhTJMwK/Py6E1yW2wWM8HmEwyFEUGR68+AAeeug3QR/96O8F7/lMp+2dHT6nKcjmHknEuUYWdPObmJlpLlLPrs0NO08J01Khp7WhNzKUFp7dfn3Sbrdsw6bvW7aQvZ/fFD2F6NQ0NuOKdF30PjtDotmP1+n3tMYeFuJnBikF983bU8iJeO23zQwuXnwQv/7rH4bh02ACqqqCS3Z2N3WDuqlRi7OiHm6I7SuvH+p+590DSs61He6Q9BHZ/PXT64VT56bjfHQnw0Nvq//1IPZh+cOOVbrrvaVGlH0ROXHqlNJyz5X1MKS7/4Ks1xJh63+f8Kwo+IA0E4KPp46kTgzQOj4AwZosEhnedsgjLDzKEil9FmuKUH8dVAKtiJpZjRPAsuxSWyOWvrtz8Ncip0crMddKpfQ9CH2HZVE680SJw6Un3bSfblk71HPs5gmSQrtdkuQ0O06DjyQMIcDwpURME0+zotsqhTpM7n06oqQu01Ih95nUjdfG0R87aNNYjnS/a/oukWALzrgoEMdU6myf1C2cKrCO4sypbaS+kGTgNfkk+3I7ed4fBE48yO4GF7ijBJLRnmTA4+DUbuJVgSWGDohqKw+Iq+9Nwf4sYIEwD0LrO19L7AXQzr0OECwDURJuP+qb7H3oeqDb5ISOY5hivv1rKXXw+uiH7cRbBvGKDyOl8WiEvMhFsPukeROvEqRe1iFw0xS/RmEgZhHaOYle6kv/qOu/iK4G/bgxjd7ARuzGXEdca56XQfO9GKnB7VMCqbUEHSjhNVKUTLQbznRbAEgB+ky8JopvX0KHQT9OQvKGmBbfPmzCh0DS1VG+vFSQrMdanN6CQi4oDyE9F6UVKsC/Z4TUFNPCF93EywVzHZVlEeZ32113LNe8Fn0N3Y9eO7iecmVvvGWRCZ5HnF4OsNlpaRlINPgg0hTSMdSfaVxF9peptg6ZQpYs5VnO87tXlfpNXFe8LFVKa2y83qdGvVIISYf+VYMDBiAOi2g6rycSEd7Qfmy/OxS7RftAtVqF65r2KAFd76RmOQSZiBCvfM6rVeXdR4m7I02Spvecy8OMEl0l5noSy6j3iRM0IURdI8ivg93o3XZzmU1oEQjtDvUgP87k0/nNZN1uJD053LnO/KlLFpdpvEXQYwqsnCya5iyNsyz+ywPp+yaNbFQw6i5Y0MURXcEuYfArCp1/leU4Njklxhj+7XKt1aok1lo+nm7uQE2ea1ZliDU/PVDE82S2D7xulxfYyXkWCZYp48uOgKXLekkVAAD9xm98LIAMmrrBZG8XTn57bj+IcZSrg4zpS4P3Hnt7e7hy5Qp2d3eRye/cpTWdiAuU5qRf8P71MqSL6mxmsXZ0DaPRCCQ/Fwpq33LYNBdBa9xhFYSSdd3Ozf8mgjH8K16/9k/+Md75znd0a+zhXtFra15C4Q6DqqrwoxdewE9+8hM0TYOyKlHXfEJM3wR3ViZyC8mf1FwnszdxuYk843XMCTUOO7u7KKsS0NUUndy9NBxWqH0QycxX/wEIRT4A8bS9HlPDD15tqOsa070JjJnfZRbNbnJ2MR9tK2Y4OYlbz4nK04O/5CfL1LTnGYfJhPI8Z9NvebnJqwW6DnmZvAJPtKfrgvpBFiEkZrh/7zB0ddC1ydYaBJ+cupoIVs8Tjm1r/L26/qltIjgJGwWqQi8K5HmBIs9RyD3dIyxvTOhGI3kn8bz3smwE8M+PgiiDMfzLyq15CLJfp088+kxCoP7z/WhJmiFZgxQAyCk1wTvUVYmmruAaJQfeh8TrhAxZ5CZDkQ+QZwXyjH/7Ns/y+J2vC75ncxT5AINi2Amf2Ry5yTAo+NlwsMLf82LJOqrDI411WOpDh/pT0i4ciYNnrKx9CiRDitIHOiy4J7U8EyliuEBz+5sj9bKsgkXwaJoK0+kEdV2yMsn7gVYJtD9njRzRF82sRZ5lyLNMajJ7xfo9Dce/mGlgjVouXoRWDArksvLvRmIxXxdwnQKahn9CXH9TnsjAON/A+wrOV22Viauh04RSMgCygykkBCu0TPN7JjvOS3k4V2M6m2BrawMvXvoxNjYvY29vF42rEMDbCMkEGANYCxgTkOcGg0GGorAoCouVlYJpNECeG9iMkOUGuVJhMRhkGI1XcGR1hCOrI4zGQ4xGQ+S5QZZRYnV6edyP+uWKtMByXQ3FtPm3iOqmxpkzr8ett55FlhnQhz/8SOAdb2z26oZ/Wy4yvuNl6p/U4ToYHe0jADp/KN+51rUIclQrELB+4W784i/+ArelxgJBz2LU7gafRWzIxElmSH9Xl2KCgCLP+YtkhqBdJrnSDCWZ1TDf+tY38R//03/GZG/aPgQiY4GWTV0/hS+4nnQZxltV+uFbzLG3F07Lbq3BeDzGbbfdine+653423/rTdwl/K//5Y/C5Ssb2NzaQllO+fBjKVR/rSO/LCDPiqWm2y74tQsNS/GHgdsRJT7xu1sM5xyyzMJmBm95y5tx8eL98VkIiIdsqsl8ubG9vY3Pf/6PMdnbazlM0qlIkPat9RoaQwZaFF4HVpZkX+sP0nTTPrScOr56ZBVnz57BhQsXsLZ2FEZGn2h7exJm5Ux+pls30rYJsDDkO78FmbFLxMq/CbcMaRm0T9jpyxG33t7zhl8ywGi0gjzv7pjnOIYFG5uN648QeH+MsRa7uxOQYYWCckjznsinK1jDfoP6hqn181zjJORcjQTaekWyIyLKRE5FBQUMhwNZ/e9Ve4AA0HQ6C3VTy5HslNRYrZ/zjIsOzgI7km4FTKFOmgomarOOdSbMsdainM0wXBnwJrEkDyF4UTYR7IL8XW8451BXNfJi2LK3N9Kl2zvTe2TYYQQw19zo6J4Ku8/JaCwTPkHSJ+JfkgYC8jzjcymIZJcip0Wz2bRNOXStb8wUYc7sXAtSje0rBT9L70WO9ISXMG6BYl1vdPPc8iDww4XP9kO/2UnLoO1mF13BdsFhNc0Q1z4RaDbb672JgxOHlHvz7cm14GDBLsOrRbDL89x/tgz9cs4LdjH2S39RvJcurRsCSugmDgMqZ3tdeR+ixh6WvfN6dBM3CtdeY8PBdFgFuInrj2sX7E28qiG/MnQALbKpC4LN0U28YqCyLBeJ7SZ+xvH/Aek95kmXsm03AAAAAElFTkSuQmCC;" vertex="1" parent="1">
          <mxGeometry x="580" y="500" width="94.4" height="80" as="geometry" />
        </mxCell>
        <mxCell id="5Ddv7FsW2zNBN4ctXqHw-12" value="Air Conditioner&#xa;Controller" style="shape=image;verticalLabelPosition=bottom;labelBackgroundColor=default;verticalAlign=top;aspect=fixed;imageAspect=0;image=data:image/png,iVBORw0KGgoAAAANSUhEUgAAAIgAAAChCAYAAAAcGfesAAAAAXNSR0IArs4c6QAAAARnQU1BAACxjwv8YQUAAAAJcEhZcwAADsMAAA7DAcdvqGQAACsjSURBVHhe7b15mBzVfe/9ObV09TLT2+yjmdFIGgkhiUUGZEDYEAw43uM4djbvwQtxHhIgThz7Xps818lNnPs4thPHjv3ex9dJ7Dg2XL8vjsFAACcgFlsCJCGEdmlGsy/dPb13ddV5/+iunt5mpkeMhED9eZ56ZrrOqapT53zP7/zOqTqnhJRS0qTJIijVO5o0KacpkCZL0hRIkyVpCqTJkjQF0mRJmgJpsiRNgTRZkqZAmixJUyBNlqQpkCZL0hRIkyURyz2LsW2b73znOzzzzDPVQUuy/qb30nP5G6p3L4mhwvXdLnp8Td2eLywrEMuyuOvOu/jpT36CEKI6uAbbTNN73Tu59Pc+j8vbWh28KGlL8sFNbq5s19Gb+jhvaKgoFEVB07TlN0XQd+UtXP6xuzFa/AhBQ5uqwKe2erimsymO841VKQ5p5UEIene+lcv+8G9w+VphacNUImQIPrDBYEtQqw5qch7wsgUirTxgs/m3/oitH/ocuseLtO3qaDXkbIlHE7xnncG2Nh1l+daryStAQz7Ip//40zzw05/W+iDSBkWw5YOfZeD6X0OoamX4EgRcgtu3egi4FMpPmzIl8xmrPOqidLeuzOpMxPPVu0q0eRV0dfH6Mp2wsOpklUcTBDyF+zYtm9lUbeUwNIWAWylVgkxeEsvYVGe9EIKAW8GtFSIull6/W8WrF+IkczbxbO01AVrcCi1lbbYtIZaxyeYX4nv0QtoW48wFYlsoKmz+4H9j7Y3vKT9kSWwJXV7B72/x4i/epEPOkvzLszF+vDcOy1gURRMYhsLNG7zcPOSjL1DwgRZjIpHnE/dMYFt1bldKPnp1kHdv81eHQCGYzz44xf6RDKLsGkLALZtb+NQ1QYQQ/GhfjH/6RawQUMYnrgny1otbEcBwzOQfnorw4ngWypLiVgW3bG3h1isDCCGYS1t88J9HEWrlufxuhTuuD3Nln4dkzubvd0V44liqJr+kLbluk48/fWNbKTnzWZv/+egML4xmQYAm4H1X+PntywKVB5exuHSWQGYzuAIhtnzif65YHJuDKh/Z6KkRB0DalLw4mUOoAkVbegPIZm3u2x/nCw9N8+MDcUy7TuED2bzk209HkVLWnEfRBEIVnJ5f3GrNpCxG50xUl1JxnFsTbOrQSxVn13CmJu0tXpUOv4YiYP9Ehr9/fI6DE1kUJ54q6PZr/N61QT52VUFoAE8NpxBKoSKUNlWwNqQzENShWKGORXOIOvekuhRemsgyk1q4r0ja4sXpHIpeTL9L4aIOoxRejxULRGYzeDrWcMltf8XAzrdVBy9KzpZsCaq8Z51Bl7f+ZbOmxXDUrK6AAIhi6yVlpf+rqIJI2uafd8f48QvxhYAynhxOsX8iW1H7yxGK4JfjmerdJV6azlKv1TNUwcWdhQyOZWxOzJiV15DQ36rR79d57ESSr++KcGgmV4ojLcnakM7Hrwly05Bv4TjgiVMZhFabT2GPSthbyIzppMXkvFU3vyg21/smFu5rJGpimwuZZ6iCTW2u0u961KZgCaSVx+gcYNsdX6Fz6w6kXSfX6pCzJdd36/zuRjftS7R3J6N50lm7wlxKCTcN+fjrt3Ty5Xd28YWb29nUXnlTQhQK+f4DcU7HzIqwaNriv46kyOYLGVMtMIdY0iJh1m/L90/lyNU5yKUJ1vgLtfnwTLa2+RIQ8Ko8cizJt56MMpGwSuKwLUk4oHHX9WGuWOOpaB5jGZvxSG1F0RXY1O0qxT08ncUu3lc9spbk4Fi29PvJ4XTpnLYl6Q1ptBiLlwcrEYi0LDzeIFf92TfoHNpWHbwoArhpjYt3Dhp4i03DYuw6tXADDgqwrdPFRW0uNoR0rljj5tM3hAnUOVcqLzkymyv9lhKeGknz3GShzUXCpjad9SG9ov0HsLI2c2Xm2CGTl8RTVl1RXT7gKTmeT4+ka/wABOwez3DP3jipvCyFK8DWXoO/f2cXa4O1PbiReZNcnYJ3qYLB0ELlePp0BrFMCZ6K5RmNmdiyKBDHp5Hw+gFPdfQaljl9AWnmCK7dwo6//AGBvvUNWw4B3NCr8+Y+F67qXKjCtCXPjWVqMrnLr9EVqOytdLVouItmtpycBcfmFjz/uZTFo4dSOL1uryZ473Y/a4J6zXWEItg9kq7cWXRux2NmjaDsvOTaYgbnbXj+dMGvqEAW4pVfy6sJ3rTJx3+/sb2ih1HOsZkcuTr+lNulsCFcsFimLdk/ttBsSgltvto8OR3PMxIzmUzksTKVFvKKPnfF73rUT2EVva+/hSv+5O9o6VyDtBoTB8CvDbq4aY0Ld3XG1WEykSeaXDDBUMjgLo9KT0ttd9auk4HVPHAkwaHpLEIUvPobhnxs73ET8CiIOocfnq1sngDG5vOMJ60aQSn6gv8xHjfJLdI8VbO1x80HXxfA56qf9Xkbjs6Y1DtdX1gvHXd0NlfhTwD89uV+ZFUzl8zanIqYPDuWLvWupC0Jtap01cnXauqnsgxFUeh9/ZtwB9sathwAH97k5tquxsQBsOd0BlmdKQLaAhoBT2UyJxN5clW1AcCtCS7pLJjg6YTFj5+bL5lURVd4z6Wt6Ar0+FWq/T9FExyfXGivKfa65hJFv6iKDW16aSzi4HS25OMsx1jMZDxeK0SHeMYilrJqLZYluaasxj9V1qRJW9LZqrK9x02wpdKKCAHPjGR47FgKxWmWJWzvdaMvY9VpRCAAilJruuphy8IT2fcPGWwNFbp2jfLMcG0brivQ3aKglDkmtoSnTqVIVTuEgEcVDIZ18rbky0/Mki9LgLQkH/vxBL/+/TH+9y9jVFU+ADKmZCa5UAlylmQkli82lgtIS3J1f6F5kcBYzCJf517rjbudjpo8dDBJqp6JKPofp+Nm9SXBllyxpnhNCU8PZyoK/KYhLy2GwrUD3hp/6disyZHpBVFKCVf0Lt29dahzC2dGXoJPh9/c4GZ7e63jtRQp02Zszqxpww1F8LpiplAUx4GpLI8eSdWYYNuUXLfRS1eLxlPDaY5PLzirpTh5iZ2XtZaqiCnh9PxCRmZMmwPTRQe3HAGX9RQyOJG1GZk1qW55pS25sarrStHXefhIkoePJKuDkEW/KZ6tVW8opNNRfA1iJmWRqXKot3QaGKpgaLmn4RI8hsLmjqW7tw5Lnaph8jZ0egTv3+jmsvDy7Vo1p6ImuTqFpiiClGlzcDrL3vEMP9wf49tPRTgVy1cUmrQk6zp03rO1lbmUxcOHUzgtkJSF8OqtHhYwOr/g5MZzNpPRfE3Pqs2v0V50kicSeSaStUPiQhG8f7ufK/vcyCp/SaiC7+2J8cvTlU6xaUlOzuXJVqlf2pIdve7SIFr1uIzPq9DbqiEE9Ac1Olu0mibKQUoYCOoYemOtwssWSF7CQIvCrRd52FzV22iUveMZMnXa8IRp86VHZvniQzP81SOz3LMvwaloZWFIWzLYpvPpG9rwu1V2j2Z4scyXWBfWed92f802WOwNlJOzJSfLzr9/ota3kBI2h124i9V0LF7rxEpb8oZ1XgJulXdva6W3OFZSTtaC/+fJKJOJhetl8pKD09naJs2m1KRRNS4jJVzS6cZTdF4Hgi7WFkda6yIlW7pceOqMZNfjZQlEAkOtCh/c6KarypFslKwlGY5YWBRPWLbZNiRMScKUpPIS0yms4h+PKtjR7+HPfqWd/oBOJG3x7wfj5PJ2wZSqgve/zs/7twdqtuvXewpd0OrrpSyyRQvz5HCxhpeny5asa3NhaAp5WzIey5M3C9dzNmnDVX0GAtjWZXDVYHG8pPw8wETK4ru7Y6WHZ8msXRhprYqraYK1xdch4lmb2Vi+0HUvpmcwpOEq+iMeTbClx1X4XX694iYErA1ouBrsPKh333333dU7q3khYjFW9ZQyL+GigMqvD7oXHTpvhGTO5vBUDgG0edW6W7hs6/BpDAR1Lu40eO/lrfzGpX6CxaepL0zneHEsS5uvEHdbt8GvX1L/ARwCTs6apbhhr0qbR6XHr3FxlwtVETx0JFka2i6//hvXe+gL6OQsODCZJWvKinS2+VTesaWV1uIo5fqQzmgkj8clKs4V9qhICR2tGl0tGsPzJidnzIpzhTwql/S4ef2AB0MTzKUsDk1n0ZXCudp9Kjes99JXZjVcmmB4No/frdRcry+oc/U6L52+xqz9sk9zpZT84FiW3TOVpn1Hp86b1+gElxmqXY6cJZlLWYs+aHOQslCouhB4DYVW18Ljc4eZZJ5UWfck6FHxL5I+05aMl/kbDi61kPFCUDdcEQUhe3QFW8J0Il+yOA5CQE9r5dPl6USedJ1mFKDVpRD0qCRyNpF07VCCR1do86ooovDgcTZlkS/mV3l6HPI2TMbzdV9P0BRBm1fFqDMSXY8zEsgbuzRu6TfwNHiRJq9e6levOkgJqoBrO3XeurYpjguFhgUiBNy0Rucda10NjcA1eW2wrEAsWRjR/I31BjevcTXs/TZ5bbC8DwKk8xK3KmqcwiavfZYVSJMLm2WbmCYXNk2BNFmSpkCaLElTIE2WpCmQJkvSFEiTJWkKpMmSNAXSZEmaAmmyJE2BNFmSpkCaLElTIE2WpCmQJkvSFEiTJWkKpMmSNAVSRvPVmFpW5YWheqdIJBOMnh4jnohj5mrnyb5SqJpGMBCgr68Pr9dbHVy7kuMFzqoLJJVK8eijj3LPvfdw/PhJEvE4pnkeCURVCQSD9Pf18bu/+wFuuulGdH1h0lFTIJWsqkCy2Sxf/vLf8rWvfZX5+Xk0TWPLli34fC0V8Y8dP8bkxATqCtZVXSmWZbFu/UZ6ujsr9idTKY4ePUoyESccbuPDH/oQn/tvn8PjKcx9bQqkklUTiJSSb33r29x15x34AwHuuusu3va2d+DxVC5zJITgwIEX+djHfo/YfKwibLWwrcIitU8//TTBYLBmvYxYLMZjj/2cL33pr4hEInzxi1/k9ttvR9O0pkCqWBWBALz44ktcccV2BgcH+exnP8frrrgSIUSNfyKEIBKZ46Mf+QinR0fOSoHYlk04HOb++x9A011106Aogv379/G5z34Ow3Bx7733snHjxrOSnlczq9aL+fa3v4VhGLz97W/n8u3bYRHnVUpJKBTm1ltvJRgMY1v2qm+hUIhPfeoP0F3GommwLJuLL97Ce9/3PoaHh7n/gZ81xVGHVbEgyWSSHTt2EI3F+Md//Bbr12+oWzDl2LbN5OQkY2Oj1UEvm7a2dvr7+xvycfbt28sXPv95hoaGuP/+n1YHX/CsikBGR0d5wxvegGVZfO/7/0o43LasQKCwQN7Zwm7gixMAJ06c4O67P49tWTz77LPVwRc8Z6eEpFxYscRZLaUOtm2fpa2whIIQoqrZkIVVmUXh/ybLc3YEUlxiaThuk7EEllwoLEUpbJQV4HLbmfLcqSxTscr1NpJZyRMHk4zM5JsiaYCzIhChKDxwPEebR2fvrMKhqGTfTJ6nJlV2T0p2T0ryUvD8888Ti0Y4deokhw4dJBaNlrajRw8TjcwRjUZXLBIhFE7PWfR16IR85ccKTk3lSGbg8YNJdF1FbU5GX5KzIhBFgUt73IynJENBmy5fYeL3Op9JyG3j0STYFh6PwczsLPl8Hp+vhWQqWdq8Xh9ud2NreVbjLPgrJQxXrYxk6IKR2QyDHe6apSub1HL2nFTborDSvAQWmorCflGxbznONInTcYugT61ZNzRvC1y6QFoWJ0+d4vOf/+9NJ3URVlUgUkruv/8BOjo6zrhQV5eCOBdFCE4cP84f/uHtZLPZpkDqsKoCEUKwa9cu2toa6+aeDxw9epSPf/zjpFKppkDqsPo+yBIV9nzj5faSLgRWXSCWZWEVvT/LsrCLA1blf5eyLk48538nvvPX2ag6v/O/E9dJg/O7/JzlLJWWJmdBIA7VBeGMmjo11gkvLyDbthHFB3zl4U6casE44YsJwDmfoihnddT2tcyq55qqqqiqiqIoqKqKEIK5yBwnT57k1KlTJBKJkggoCsYpPEVRSmbfKVRFUZBSIoQonds5rvpa1X+FEEzGJ7jv4L388/P/mz2nf1mRVuc8TRbnrDip4XAYAFtKInMRFEXg9/uRUhKLxdB1Hb+/sES2aeY5dOgQmqYxNLSBaDSKZVkYhkEmk8Hr9dLa2ooQgqmpKaanZxgcXAtQEpuD3x/A7TawbRtFUXh25Jf8n/3/QMqKAxJdcXHjwNt418Xvw6W5EEJw5MiRZZ3Uaiv3asHJG6fSnQmrLpDHH3+c9vZ2ALK5HOl0imwmSyKRwLJs2trC6LqO1+tFCEEmm+XE8RMoisLAwACZTJr5+flSHJfLhdvtRtd1jh49hsfjJjYfZ6C/j+npabw+H0KApuoYhgufr/CNlnQuzd2P3UXMjNCqt2JJi7SVoVVr5UOX3cbmjm2oqrpkL0ZKSS6XI1f2Tu2rSSAUxWEYRoVFXolYVr2JUdSFBJg5E9u2mYtEGBgYoK+vj/HxCaSUmKaJoii4dJ2urk46OztxuXQ8Hg/d3d20t7cTCARQtUKTARBua8Pn89HftwZN0+jo7MDn9RIKhtB1HU1bWKA+nplnLjeNIhTWhdazIbQFgSCZTzCeGAWxdGFLKclms6RSqVINFGXN2qthUxSFXC7H3Nwc6XSafD5f8uEaZdUFUo6iKKiKSiadJmeapNMp8lYeWxaaACfD29vbeeHAC+i6TjQaJRKJYJomp06dwrYKcQFCwQCBQIDW1lbcbjdej5eWlhZ0Xae1tQXDKLwg5GSAoRbeM3XpLgzdjSpUFKHg0T0oYmnHVUpJOp3G4/Hg9Xrx+Xy0tLTg8/nw+Xx4vd7zfiukuZVsNks0GiWbzZVE0iiL59AZIKUkb+ZLXV2XSyeXy7F582ZeeuklpqenuXjzZnLZHGrR2bRtyeHDRwgFQyXfQQhBOp3GNE2mpqZLN1Tdlpb3YJxrOj2dNl8761o3ogqVvePPs3fiF9jSot3dxRr/2iUzSUpZykgnPfPzcWZmZpiLRJibm6upiY4jXU25YFdSc1cLJ00vHtxLOp0kk8lgmgXL3girKhAhBKpW6D04Zs7l0onFYmzauJHe3l5m52ZpbW1F0zRs20YI0HWNbdu2oihKyUL4/X7WrVtPT093qaY7hS+lrBjncP6vSIeq8juXfpRtHZfT5ukibHQyGNjAW4fezdrgOoQQxevXFirFa5X7HrlclngiTjKRQHfpzM7OEolEmJ+fJxaLEY1GyWQyzM3NMTc3RzQaI51OE4lESvFSqVTFNc4F5bd39Nhhstkspmk2LNZVFQhV3VYhBIFAkEAggGVZSCkJh8N4ixOWHKdp/fr1qMVuqddbaDYMw8AwXHg8nlIhOrW5vFCdfc65nN8APYE1fPCyT/Lh7bfxodd9gg9d/vtc2X9NRfyVoGkaHR0d6JqLbDaLlJJMJkMulyOTyZSsXiqVwjRz5PMW2WwW25YkEomK+TevBPF4jFgsVkp7I6wsh5ZBSomVX6jNjhkzDINgsCAUo86LxNW/y0VWjVP4joVy4jrCqRaQobkZDK5nfWiIdm9HRVijZhbA5TLo7urG7Xbjcun09PQQDAZpa2ujra2Nzs5O/H4/7e3t9PT0EA6H8fm8dHZ2Eg6H6OrqwuVq7EuTZwUhkdiYplkx2r0c9UvhDBHFJoZi5juFXN5EOAXoFE51ga42ojgoZ1kWiqJUiEIpDsIth5SS1tYWVFVFSomiKGiahqZpJaE6/5f/VaoG7l5ZJFLaZHMZMtlMw5VjVQUChS8+Upb5suw5SrkQ6lmIagvgFMTs7BzPPPMM+Xy+lPFOuLMtJrLq/Y5YnLSdCc6xzvHlv8v3nY9IKWs+07oUtaW0CjiicISxXGY5hTwznyKZMUu1UFEU4vE4e/fu5YldT7Fnzx6mp6dLNTKfzxOJRIjFYszPzy9ZSx3rIYpNUrmFu3AoVFqrQevBWRFIscKWi8LxFaprs2OKbdtm72SOWDLL8dkMI5EMFLuuhw8f5ujRI2zbuoX7fnIfIyOnC02ZqnLq1Cmi0SiPP7GLn/z7/RV+STnVlkkWmwkn7IJBCgpfml66wpaz6gJxrAdFAVTXUqfZqJ4H2yLTfP/5OZ4+NoXBQvdy69atbL54Cy8ceJF3v/s9XHbZpaUwhIqu6+RNE7e74AA61qVewTvWgxU6qK8ZRGOOaTmrKhBZ7MU4NbwcIUSF/+DUaFn0TebxsK3XT3/QQ9IEiufweDxct/Nafu1d7+SySy9B07SSdcqbOZ54YhednR20tLSW0uBcq9yJLMcRUZPlWVWBiGIvptxqOLW2vJmprt2KojAUNrh2YwfXbOykN+RFlJl/t9vNxRdvLj2Ic4S1Zk0vV19zNevWrWPTxo01vo5zbUew1dasyfKseo5VF4JTONWicHAKMOhR6PXrhFvcGPpC82PbNtlslkwmQyaTqei/+/1+NqxfT19fH5s21QrEoVwoFzRy5cW98iMawCmI8ialIaRNOpvj1ESE/9h9mL/80S/5g28/wfu+vptf//pePvyNJ/n4N5/gyz/Zy3++cJpTkzGSmVypp1TPOpVT7v9cmCyeN4uxgtJrDEHlMPZSBeYghCCeyrLrwGm+/tBh7vq3Q/z1I3P8/ITFibhB1ir4CzHLx2jazYMvpfnzn4xw+78e4us/O8TjB8aIJ9PVp62Lk54VCfcCZvVzSSzfrJRj2zaHxub4yoNH+dsHT/DIoSQJU+DSFXRNqZrLC6oi0FQFl66Qs+DRIym+8vAwf/vgcQ4PTy3azJTT9Eka5xXNIdu22Xd8ir/5yRGeOp4gjRtVFagNfKBXVQrxVFWQsVWeOZnk7vtO8vgLIw13YZsCWZ5XLIds2+bAySm+9MBRJpOFWl9tcOqN6UhZOyffOW4qYfN3j5zmvw6Mkm/wYVSTpXlFBCKlZGRqjsPj83z8po184Op2ugIGVvEZgV382xNwsbXL4Jr1rVy/KcDODa1s63XTG9CLQ8aVUjFcCom8yj/tGuPgiZmKsCaAqK5ay/OKCGR0OsZcPMO7rxnihou7eN+1Q9xxyyC6pmLZkvXtOh/d2cUdb17LXb86yB/dPMjtN63ljlvW8ce/OsgfvXmQT7yhm809Psy8LAkKQFEE4wn4+0eGmY4mGvJJLhwaa3rLOecCsSyLh/aN0tMeKo1mWpbFtj4/AZ/BjvV+/uStG3j75d1sWROgq82Pz+vGMAw8HjcdwVa29AZ4y+U9fOYta3nLxd6SE+ugKIJjEYuvPXCwYv8FzRmMgfBKCOTQeIzHj6WIJheet6iqSiKV5vI1Cp++uY/+9tbSq/rO2IbTI3IGvVwuF+1+Dx+9YQM3XhSg2q81XAovTFi8eGK8MuBCRazcenCuBZK3LJ47HmEkkuefnxzh8Ok55pMZTk3Ns/f4OLdeuwaPx9Nw70LTNFp9bj7yhjVc3u+t8UlSJvzswBzZnFmxv0njNFYSq0Qqm2fviVkURbBnOM1f//tR/vqnR/n6f5yiMxSgpaWlYpSzemS02po4+/xeNx+9bk3Jh3FQVcHJOZPpeGODaE1qOWcCEUIwN5/mpTmJrimoimAsIdl9Ksm6Dg997a0VT1iFEBw8eJDnnn+edDqNEIJkMsmePXuYmJioiKeqKr0hL2/e7KV8CCSXl4zMpDgxEW86q0UfxJbLjzGVc84EAjAykyCdWyhBIcBjaGzq8eMqTpdwuO+++3jo4UfYt28//999/04ymeTuu+9meGSEb3zzm0xOTlb4Jaqq8voNYVxl6025NIWUpRJJnVn7+1pEWWFX95wJxLZtxqYqF++XEvyGoMNfeG+jnHA4zCc+fitvfOMbsPJ5otEY73nPe3nH29/Ohg1DRCKV5xJC0N/eSqjFIG8tZIItYSqWIm81RXImnDOBAMTKrIeDVwePtvAQzeG6664D4Nlnn2fTpo10d3exY8eVHDhwACFgYKAPyvwSRVHQVUGnxyr1aArPbiCbLTzxbbJyzqlA6vUllCUe0d9z74/xt7ayffvlqKrK6OgY//lfj3PLzbfgcrk4cOBFXjz4UsknUYRA1fWaofgmxVHUMxgLWfkRZ4gQgm5P7Wt+pmVjljUJFOP+8Ef38Nxzz+Jy6ezZ8yyzs7P8jy/+Bd1d3ezdt4+RkRHcbgNVUQiFQkgpyUtJNF1rpRrsNb/GkZwX74MshpQSj6d2Ztl81iaaqpxxLqXk0ksv4Tff9148HjdujxtVVbn19z7C4OAAwYAfw20wODiI220QjyewLIv5eIqpufmKp8GKEIT8hUlPTVbOOROIoigMdAbQ1IVLCgGJdJ7jY3NkqvyEizZtYseOHezYsYPLLr2UQCDAjh07uOqqq7jqqqvo7ektnHNggLa2MEIInjs5Syq/MP/VzEtULNpa9JqR1iaNcc4EIqWkJ+yj12tVDGZZKPz8eJKUubAyIcVm5sTJU6TThTky+XyeycnJ0rnKceaa/t/9lQNiqgI9AYPBzpZF/ZwmS3POBALgc+tsH2jFzNsV73kcm8zx6PMnS1MiARKJJKaZ5cSJEzz99DO8cOAAJ06c5JlnfsGuXU+SzWah2H028xb3/OIkM/NZdK18lBV6w266/JXfzWvSOOdUIIauccWGMG3Fz9VatkQAmir4xyfn+fmeQ2QyGaSU+Hxe3IabQCDAwMAAvT09rF+/jvXr19HqL8yBse3CbPW9J2fYdTJPqNVd8WRXAa7d6Kelju/TpDHOqUCEEGzpD3NRr5+8JTHzkpxpk7dsZHKGf/ne93j4P/6DdDqNZVn09/fT29tDb28PnZ2ddHR00NHRwSXbtqFpGqZp8vjjT/CDf/sRtpnAcKl4DReKIshbkm6fxdXrwg0//GtSyznPOb/Pzbu2BfFoxQne2Th25Dhdk48iEpPce8+9/MM3vsnIyOlC1zWfr9kAZmZm+M53vsP/+e53mTm+m9Rz/y+t7nxJJJoq+PSbB2jxNpuXl8M5F4gQgu0bu3n/VQH02HFEfJTO2D4Ms/jhICHYs2cPn//CF/ja3/0du3Y9yZGjRzl58iTHjh/n6Wee4Rvf/EfuvOvTPPbz/yy8nY6GiE8Qf/qHeEUSty74g50hNg2uaVqPl8mqr5P65FNP0tlR+bXrahzL8J0H9vDowz9Dj52seSsMCkPkFN/7MAwd08yTyxWWhwgGA7hcBlNTU6jFrrNE4Oka4sa3vYO3XbkRn8dYtvfy0ksv8bGPfaxinVRZXAIzEonQ1tb2qp5olc/nGRsb46XDe7EtQVdnD8FgmN7e3tLXxpfiFaleQgh0Xed333Qp79p5MS5X4SVkKSV+v5+rrrqSq6++Gp/Pg2G4SgIQQmAYLgIBP9deey03/sr1dHQUFu0FkLbN1ZvXcPO2NXjdhZWUmxSRCggbeT4/7q/G5/Pyrne+g9/6rd/EzOUQQhCLxdi9+1l+8YtfYpU9gS23MNFojMOHj3B6dJyZmVlyuRzpdJqPfOTDvPe9v0EoFGo2LdUIWRhuP18f9y+G1+vl5ptu4qtf/QqXX74dTdOxbRvLqh5+XzhGVRWOHz/GY489hqqq7Njxer76lb/lV264Hp+vsMR3kyqKlmOlOfOKC8Sho6ODT/3+J/njP76Tt/zqLQwNDREKFZbMFEJgmoXei2EYtLd3sGH9Bt761jdz5x1/xG2f/Djd3d1QbIaa1EHYZyCPV8hJXQpZXGQuGo0yMzNLMpUknUoVLIgAt2EQCAQIh8OEQgtTJ86UppO6NOeNBXEQxdWB2tvb2bz5Il63fTs7d+7kuut2ct3OnVx55ZVs2rSJ9vb2ly2OJstz3gmkGlH2JruzNTl3nPcCafLK0hRIkyVpCuRC4gymXzYFckGx8g5rUyBNlqQpkAuKlRf3yo9o8uplhQ/qaAqkyXI0BXLBULAer6rH/U3OMc1ubpPFKbwPIl5t74M0OZesrHmhKZCzi73Cz6AvRaOrRy/J+Ty7/7WI8/J1vcJzvqcXj8ergxrGeXJtWRajo6PEYpWL5pwLmgJ5GWQyGUZGRkqzAcuxbZtoLMr4+DiRSGTFrykIIUgmU6W36UKhELOzs0xNTa34XHBm1oOmQF4eLlfhzfnTp08TiUSxyz71bhgGfWv6CIfDpNNp5uYipeOq328RxS9oOZZICMHExCSnR0eIx+N4PIWFhBVVYX5+nkgkUtdqLUuzF3NuUVWV3t5eQqEQ0WiEqakpcrmFBYLd7sLcYo/HSzqdIhqNks/na6yNaZqMjo4yPT1d/JS7TTAYxOv1kkgkiMfjaJrGQP8ALS0tTE9PMz09jWnWW7NpCc7Aiqz8iCYVuFwuQqEQ4XAb8/PzZDKF5SocDMPA5/NiGAYzMzMVPokzF0gIgWG4SWfSRCIRpJQYhov2tsKcH0cMiqLQ2dlJIBAgHo8zM7uCDxacgfWgKZDGqG4Oqjdd1wkGA3R399DS0lJzjGEYtLW1sW7dOoLBYEUYRUvU3t5Gf18/HR0dqMWPMXk8Htrb2+ns7Cw1Z6qq0tHRQWdnFx3tHTVpqd4A1KolRlfCOXmrfRUusaqUZ9ZSb7UnEgnyeQu321i2zY/NxwrnLd5qa2trxXWy2RzZXKYU3tLSWjPdVErIZAqLBrvdC5POpZREIhHC4XBF/FwuR87M0eIriLIelmWRyWQ4eOh58qZNV2fv+fdWe7Wqz3RbrXM1ihAKmlb4dq/X68XlMhbdQsEQvT29dHR04PV68Xg8FeEtLS30dPeUwg3DVfyCxUI8w3AxPDzM2NgYXq+3tKmqykMPPYxhGHi9XtxuN16vl1gsxuFDhyviVqfL5TJKTdmZNDNnTSCiOI3y4MGXmJ+fJ5vNkkwmyWazpFJpTNPENM0Kp63c0kgpSWRMDs7ksGTh92KFW22hpqammJicIJFIkM1mFz1uOZxpFc5HGl0ufdFNURamYKjF7+GVh2uaWmGFdF1H13VUVS2L5+Kyyy5j69atpWsqioLH4+EDH3g/uq6jFL/cqSgKa9euZefOnRVxq9OlaS9vashZEwjA8PAwIDFNk9nZWQ4dOsTp0dMcOXKE8fFx9u7dx+49exgeGakpZIB7D0zyXwfG2TsSp3ylzOUKvLC2CPzbD3/En/zJn3Lvvf+3onfRCM7c3lLtW0WWGmF1vhZejij6MdUoZ/AF8fNqrfaenh5SqTRSQmdnJ5s2XUR3Vzfr1q2js7OLbdu2seXiLXR3ddUUuhCCE1EXaWyi8QSWZZPP55mfn+elQy8tWeC2beH1euno6OBXbryRNX1rqqMsi5Oe1ZwE7pxT1/Wa+z1XnDdrtUsp6ejo4NJLLyGXy3L8+InShGwpJblclmw2QyDgr1s7bNvmjqv9DAV0NnS18szJBHsPHOT7//oD/u0HP2R+fr76kAoEcPz4cZ5/fi8nTpzg+PETDRdKo/HKkdImmUqSSqdKqyBVk86klww/+6z8vs6aQCiKJJPJMBeZIx6fZ3RsnBMnTnJq+BSzs7OcPn26+pASWQvu2TMNQmPPSIrvPz3K7Hya6anpZXsU2ZzJ+Pg4/f39DA6upS3cxpGjRxgdHWN8fLy0QuJqomkauZyJbdm43e4akSmKQi5nks9bpS7rq4Gz3s11Jg/H43H6+vrxeAqZpygKtm2j6wsL35aTyebYM5ajy19YoTCaztPnSjIzNQVINm7cWNfyAEQiEVRVRdU0LMticmKCcDiM3x8oLPBf9tHnet1ciqObyWQKy8rT2lpYVXE5HH9FSlnXN3Cy+lyKw/H/Dh56Hsuy6OroO/fdXFHWfbStQhNSnlH9/f1s2bIFv78VXddLXrimaRVxyzeXrnHtoI8NYZ0NYZ0r1njo6mhn69YtbN26FZfLVXOMswWDQVpbW/F6PLS2tDA0NEQ4HEbT1FLBOXGdJk+Il58VjvDriYOqfHq1sCoWZH5+nut2XkckGuF73/s+GzdurFg1+XxFCMH+F/Zz55130t/fz4M/+1kp7EwsyPlItQXpbO8nFAo1bEFWRSC2bXPHHXfyT9/9Lp/85G389u/8zpn4Q+ccKW3uvedevva1r/Knn/kMf/aZz5TCXqsC6WjrJxw+xwIB2Lt3H1df/Xou2ryZL3zhz9m0aVN1lCVJxOeJJxLVuxsmFAridheXcG4AIRTGx0b4/dtuIxGP88hjj7F58+ZS+GtVIJ0dfYRW4IOsikAKbbjgi3/xl/yvv/kSAwMD3HnnXVy8ZWvDff69e/eye/cz1bsb5vrrb2BoaHlRSinJ5XKcOHGcW2/9KC7dxWc/+1luv/32it6FaZqkUoUu6atZILlcjlgsxoGDz5LP5+nq6CcYPMcWxBFIPB7ni1/8C773vX9hdnaWq6+5hu7ublyL9FTK0TQdGhDSYuRNk0YmJ+cti+FTw+zd+zyqpnHbJ2/jzjvvoK2tDcp6GKZpksvliEZjpWHwVyPZbJbJqQmOHXsRKWFgYIhQqI2e7u5zKxCH+fl5Hn74YR588EH27d/P/v37kFUfPH4lcRsGQxs3csUVV/CmN72Jm26+mWAgUAp3BGJZFtlsllgsxszsNGOjI6/KDyNKKUml4szPx+jsXMPatYMEAgG6OrteGYFQdFpTqRTpdJpYLLbswNa5RNM0Wlpa8Pl8tLS01KS91F23bTKZDOl0mkQiQTQaIZVKLzvIVpp3IkDaZ24RV4pQaotR2qK0LqrhcuNyuWhpaSEQCBAMBiteKViMsyIQh0Z8j1eCxdJLWZplcZwkn8+TyWRKFuV8EvtKUVUVt9uNrusYhrHoeE05qyKQJq9dXv7wYZPXNP8/5AVlttgdIJIAAAAASUVORK5CYII=;" vertex="1" parent="1">
          <mxGeometry x="370" y="490" width="68" height="80.5" as="geometry" />
        </mxCell>
        <mxCell id="5Ddv7FsW2zNBN4ctXqHw-16" value="" style="endArrow=classic;html=1;rounded=0;" edge="1" parent="1" source="5Ddv7FsW2zNBN4ctXqHw-1" target="5Ddv7FsW2zNBN4ctXqHw-10">
          <mxGeometry width="50" height="50" relative="1" as="geometry">
            <mxPoint x="700" y="410" as="sourcePoint" />
            <mxPoint x="750" y="360" as="targetPoint" />
          </mxGeometry>
        </mxCell>
        <mxCell id="5Ddv7FsW2zNBN4ctXqHw-17" value="" style="endArrow=classic;html=1;rounded=0;entryX=0;entryY=0.5;entryDx=0;entryDy=0;" edge="1" parent="1" source="5Ddv7FsW2zNBN4ctXqHw-1" target="5Ddv7FsW2zNBN4ctXqHw-7">
          <mxGeometry width="50" height="50" relative="1" as="geometry">
            <mxPoint x="700" y="410" as="sourcePoint" />
            <mxPoint x="750" y="360" as="targetPoint" />
          </mxGeometry>
        </mxCell>
        <mxCell id="5Ddv7FsW2zNBN4ctXqHw-18" value="" style="endArrow=classic;html=1;rounded=0;exitX=1;exitY=0.75;exitDx=0;exitDy=0;" edge="1" parent="1" source="5Ddv7FsW2zNBN4ctXqHw-1">
          <mxGeometry width="50" height="50" relative="1" as="geometry">
            <mxPoint x="700" y="410" as="sourcePoint" />
            <mxPoint x="750" y="410" as="targetPoint" />
          </mxGeometry>
        </mxCell>
        <mxCell id="5Ddv7FsW2zNBN4ctXqHw-19" value="" style="endArrow=classic;html=1;rounded=0;" edge="1" parent="1" source="5Ddv7FsW2zNBN4ctXqHw-1" target="5Ddv7FsW2zNBN4ctXqHw-11">
          <mxGeometry width="50" height="50" relative="1" as="geometry">
            <mxPoint x="700" y="410" as="sourcePoint" />
            <mxPoint x="750" y="360" as="targetPoint" />
          </mxGeometry>
        </mxCell>
        <mxCell id="5Ddv7FsW2zNBN4ctXqHw-20" value="" style="endArrow=classic;html=1;rounded=0;exitX=0.25;exitY=1;exitDx=0;exitDy=0;" edge="1" parent="1" source="5Ddv7FsW2zNBN4ctXqHw-1">
          <mxGeometry width="50" height="50" relative="1" as="geometry">
            <mxPoint x="700" y="410" as="sourcePoint" />
            <mxPoint x="430" y="480" as="targetPoint" />
          </mxGeometry>
        </mxCell>
        <mxCell id="5Ddv7FsW2zNBN4ctXqHw-21" value="" style="endArrow=classic;html=1;rounded=0;" edge="1" parent="1" target="5Ddv7FsW2zNBN4ctXqHw-9">
          <mxGeometry width="50" height="50" relative="1" as="geometry">
            <mxPoint x="520" y="360" as="sourcePoint" />
            <mxPoint x="750" y="360" as="targetPoint" />
          </mxGeometry>
        </mxCell>
        <mxCell id="5Ddv7FsW2zNBN4ctXqHw-22" value="" style="endArrow=classic;html=1;rounded=0;entryX=0.75;entryY=1;entryDx=0;entryDy=0;" edge="1" parent="1" source="5Ddv7FsW2zNBN4ctXqHw-1" target="5Ddv7FsW2zNBN4ctXqHw-2">
          <mxGeometry width="50" height="50" relative="1" as="geometry">
            <mxPoint x="700" y="410" as="sourcePoint" />
            <mxPoint x="750" y="360" as="targetPoint" />
          </mxGeometry>
        </mxCell>
      </root>
    </mxGraphModel>
  </diagram>
</mxfile>
